<?xml version="1.0" encoding="utf-8"?>
<!-- Generator: Adobe Illustrator 24.2.3, SVG Export Plug-In . SVG Version: 6.00 Build 0)  -->
<svg version="1.1" id="Layer_1" xmlns="http://www.w3.org/2000/svg" xmlns:xlink="http://www.w3.org/1999/xlink" x="0px" y="0px"
	 viewBox="0 0 173.8 33.1" style="enable-background:new 0 0 173.8 33.1;" xml:space="preserve">
<style type="text/css">
	.st0{fill:#FFFFFF;}
	.st1{fill:#F0A31F;}
</style>
<g id="nav_bar_logo_-_reservaja_tag_blue" transform="translate(0.089 -0.226)">
	<g id="Logo_2_" transform="translate(-0.089 0.226)">
		<g id="Grupo_5_2_" transform="translate(0 0)">
			<g id="Grupo_2_2_" transform="translate(31.764 0)">
				<g id="Grupo_1_2_" transform="translate(0)">
					<path id="Caminho_1_2_" class="st0" d="M16.6,8.5c1.3,1.8,2,4.7,2,8.5h-11c0.5,1.6,2,2.4,4.4,2.4c1.3-0.1,2.7-0.4,3.9-0.9
						l0.9-0.3v5.2c-2.1,0.8-4.3,1.2-6.5,1.1c-1.7,0-3.4-0.4-4.9-1.1c-1.4-0.7-2.5-1.8-3.3-3.2c-0.8-1.5-1.2-3.1-1.2-4.7
						c-0.2-2.7,0.7-5.3,2.4-7.3c1.6-1.8,3.9-2.6,6.9-2.6C13.1,5.7,15.3,6.7,16.6,8.5z M8.3,11.1c-0.5,0.6-0.9,1.4-0.9,2.2h5
						c-0.1-0.8-0.3-1.6-0.8-2.2c-0.4-0.5-1-0.7-1.6-0.7C9.3,10.4,8.7,10.6,8.3,11.1L8.3,11.1z"/>
					<path id="Caminho_2_2_" class="st0" d="M24.2,24.3c-1-0.3-1.9-0.6-2.8-0.9V18c0.8,0.6,1.7,1.1,2.6,1.5c1.1,0.5,2.3,0.7,3.4,0.7
						c0.4,0,0.9-0.1,1.3-0.3c0.2-0.2,0.3-0.4,0.3-0.7c0-0.4-0.3-0.7-1-0.9c-0.9-0.3-1.7-0.5-2.6-0.7c-1.1-0.2-2.2-0.8-2.9-1.6
						c-0.8-1.1-1.3-2.4-1.2-3.8c-0.1-1.3,0.3-2.7,1.2-3.7c0.8-0.9,1.8-1.6,2.9-2c1.1-0.4,2.3-0.6,3.6-0.6c1.2,0,2.4,0.2,3.6,0.5
						C33.4,6.6,34.2,7,35,7.5v4.7c-0.1-0.1-0.6-0.3-1.3-0.7c-0.6-0.4-1.3-0.7-2-0.9c-0.6-0.2-1.3-0.3-1.9-0.3
						c-0.5-0.1-1.1,0.1-1.6,0.3c-0.5,0.4-0.5,1.1-0.1,1.6l0.3,0.3c0.6,0.3,1.2,0.5,1.8,0.7c0.9,0.2,1.8,0.5,2.7,0.8
						c0.7,0.3,1.4,0.9,1.8,1.5c0.6,0.9,0.9,2.1,0.8,3.2c0.1,1.8-0.9,3.6-2.4,4.5c-1.9,1-4,1.5-6.1,1.4
						C26.1,24.6,25.2,24.5,24.2,24.3z"/>
					<path id="Caminho_3_2_" class="st0" d="M53.4,8.5c1.3,1.8,2,4.7,2,8.5h-11c0.5,1.6,2,2.4,4.4,2.4c1.3-0.1,2.7-0.4,3.9-0.9
						l0.9-0.3v5.2c-2.1,0.8-4.3,1.2-6.5,1.1c-1.7,0-3.4-0.4-4.9-1.1c-1.4-0.7-2.5-1.8-3.3-3.2c-0.8-1.5-1.2-3.1-1.2-4.7
						c-0.2-2.7,0.7-5.3,2.4-7.3C41.7,6.5,44,5.7,47,5.7C50,5.7,52.1,6.7,53.4,8.5z M45.1,11.1c-0.5,0.6-0.9,1.4-0.9,2.2h5
						c-0.1-0.8-0.3-1.6-0.8-2.2c-0.4-0.5-1-0.7-1.6-0.7C46.2,10.3,45.6,10.6,45.1,11.1L45.1,11.1z"/>
					<path id="Caminho_4_2_" class="st0" d="M58.5,8.4c0.5-0.5,1.2-0.9,1.8-1.1c1.9-0.9,3.9-1.4,5.9-1.5c2.6,0,4.4,0.4,5.2,1.1v4.5
						c-0.8-0.2-1.5-0.3-2.3-0.3c-1.1-0.1-2-0.1-3-0.1c-0.5,0-1,0-1.4,0.1v13.7h-6.3L58.5,8.4L58.5,8.4z"/>
					<path id="Caminho_5_2_" class="st0" d="M93.7,6.4l-7.3,18.3h-6.3L72.8,6.4h6.9l4,10.6L87,6.4H93.7z"/>
					<path id="Caminho_6_2_" class="st0" d="M109.2,7.1c1.7,0.9,2.6,2.6,2.6,5.1v8.2c-0.1,2.8-3,4.2-8.8,4.2
						c-2.1,0.1-4.2-0.4-6.1-1.5c-1.4-1-2.1-2.6-2.1-4.9c0-1.4,0.5-2.8,1.5-3.8c1-1,2.6-1.5,4.7-1.5c0.8,0,1.6,0.1,2.4,0.3
						c0.8,0.2,1.5,0.5,2.2,0.9v-0.7c0-1.8-1.2-2.6-3.6-2.6c-1.1,0-2.1,0.2-3.1,0.6c-0.9,0.3-1.7,0.8-2.5,1.3V7.4
						c0.9-0.5,1.9-0.9,2.9-1.1c1.4-0.3,2.9-0.5,4.4-0.5C105.5,5.8,107.4,6.2,109.2,7.1z M105,20.1c0.3-0.1,0.5-0.4,0.5-0.7v-2.2
						c-0.6-0.2-1.2-0.3-1.8-0.3c-0.7-0.1-1.4,0.1-2.1,0.3c-0.4,0.3-0.7,0.8-0.6,1.3c0,0.5,0.2,0.9,0.6,1.2c0.4,0.3,0.8,0.5,1.3,0.5
						C103.6,20.4,104.3,20.3,105,20.1z"/>
					<path id="Caminho_7_2_" class="st1" d="M114.2,28.3c0.9,0.1,1.9-0.1,2.6-0.7c0.5-0.7,0.8-1.5,0.7-2.4V6.8h3.8v18.5
						c0,4.2-2.4,6.2-7.1,6.2L114.2,28.3L114.2,28.3z M117.3,0h4v3.4h-4V0z"/>
					<path id="Caminho_8_2_" class="st1" d="M139.2,7.5c1.4,1,2.2,2.7,2,4.5v8.4c0.1,1.4-0.8,2.8-2.1,3.4c-1.9,0.7-4,1-6,0.9
						c-1.8,0.1-3.6-0.4-5.2-1.3c-1.4-0.9-2-2.3-2-4.4c-0.1-1.6,0.5-3.2,1.6-4.4c1.3-1.1,3-1.6,4.7-1.4c1.8-0.1,3.7,0.4,5.3,1.3v-1.7
						c0-2.4-1.4-3.6-4.4-3.6c-1.1,0-2.1,0.1-3.1,0.5c-0.9,0.3-1.8,0.7-2.6,1.3V7.5c0.9-0.5,1.9-0.9,2.9-1.1c1.3-0.3,2.6-0.4,3.9-0.4
						C136,6.1,137.7,6.6,139.2,7.5z M136.5,21.6c0.6-0.1,1-0.7,0.9-1.3v-3.4c-1.3-0.5-2.6-0.8-4-0.8c-1.1-0.1-2.1,0.2-3,0.7
						c-0.7,0.4-1.1,1.3-1.1,2.1c-0.1,0.9,0.4,1.8,1.2,2.2c0.8,0.5,1.8,0.8,2.8,0.7C134.5,21.9,135.5,21.8,136.5,21.6L136.5,21.6z
						 M134.7,0h3.7L135,4.2h-2.2L134.7,0z"/>
				</g>
			</g>
			<g id="Grupo_4_2_" transform="translate(0 0.115)">
				<g id="Grupo_3_2_">
					<path id="Caminho_9_2_" class="st0" d="M3.9,14.9H1.6c-0.5,0-0.8-0.4-0.6-0.8c0.1-0.2,0.3-0.3,0.5-0.3h4.7
						c0.3,0,0.6,0.2,0.6,0.5c0,0,0,0,0,0l0,0c0,0.3-0.3,0.6-0.6,0.6c0,0,0,0,0,0L3.9,14.9L3.9,14.9z"/>
					<path id="Caminho_10_2_" class="st0" d="M30.6,2.6C29.2,1,26.7,0,23,0H11.6l-0.3,2.1h-0.7c-0.5,0-0.7,0.2-0.7,0.5
						c0,0.4,0.2,0.6,0.7,0.6h0.5l-2.6,19h-3c-0.4,0-0.7,0.2-0.7,0.6s0.3,0.6,0.7,0.6h2.8l-0.1,1.1h6.5l1.1-7.6h3l4,7.6h7.8l-4.7-8.7
						c3.3-1.1,5.6-4,6-7.4V8.2C32.3,6.3,31.8,4.2,30.6,2.6z M25.7,8.4h-3.3c-0.4,0-0.7,0.2-0.7,0.6c0,0.3,0.3,0.6,0.6,0.6
						c0,0,0,0,0,0h2.4c-0.5,1.3-1.8,2-3.8,2h-4.4l0.8-5.9h4.4c1.6,0,2.7,0.5,3.1,1.5h0.7c0.3,0,0.6,0.3,0.6,0.6
						c0,0.3-0.2,0.5-0.5,0.6C25.8,8.4,25.8,8.4,25.7,8.4L25.7,8.4z"/>
				</g>
			</g>
		</g>
	</g>
	<g id="Grupo_2" transform="translate(31.748 25.592)">
		<path id="Caminho_6" class="st0" d="M4.7,3.6v2.5H3.8V5.6C3.5,6,3,6.2,2.5,6.2c-1,0-1.6-0.5-1.6-1.3s0.5-1.3,1.8-1.3h1.1V3.6
			c0-0.6-0.3-0.9-1.1-0.9c-0.5,0-0.9,0.1-1.3,0.4L1.1,2.4C1.6,2,2.2,1.8,2.9,1.9c0.9-0.1,1.7,0.5,1.8,1.4C4.7,3.4,4.7,3.5,4.7,3.6z
			 M3.7,4.8V4.4h-1c-0.7,0-0.9,0.3-0.9,0.6s0.3,0.6,0.8,0.6C3.1,5.5,3.5,5.2,3.7,4.8z"/>
		<path id="Caminho_7" class="st0" d="M11.8,1.9v3.6c0.1,1.1-0.6,2.1-1.7,2.2c-0.2,0-0.4,0-0.6,0c-0.7,0-1.4-0.2-2-0.6l0.5-0.7
			c0.5,0.3,1,0.5,1.6,0.5c0.9,0,1.3-0.4,1.3-1.3V5.4C10.4,5.8,9.9,6,9.3,6C8.2,6,7.3,5.2,7.2,4.1c0,0,0-0.1,0-0.1c0-1.1,0.8-2,1.9-2
			c0.1,0,0.1,0,0.2,0c0.5,0,1.1,0.2,1.5,0.6V1.9H11.8z M10.8,3.9c0-0.6-0.5-1.2-1.1-1.2c0,0-0.1,0-0.1,0C8.9,2.6,8.3,3.1,8.2,3.8
			c0,0,0,0.1,0,0.1c0,0.7,0.5,1.2,1.2,1.2c0.1,0,0.1,0,0.2,0c0.6,0.1,1.2-0.4,1.2-1.1C10.8,4,10.8,3.9,10.8,3.9z"/>
		<path id="Caminho_8" class="st0" d="M18.6,4.4h-3.3c0.2,0.6,0.7,1,1.4,1c0.4,0,0.8-0.1,1.1-0.5l0.5,0.6c-0.4,0.5-1.1,0.7-1.7,0.7
			c-1.2,0.1-2.3-0.8-2.4-2c0-0.1,0-0.1,0-0.2c0-1.2,0.9-2.1,2-2.2c0,0,0.1,0,0.1,0c1.1-0.1,2.1,0.8,2.1,1.9c0,0.1,0,0.2,0,0.2
			C18.6,4.1,18.6,4.2,18.6,4.4z M15.2,3.7h2.4c-0.1-0.7-0.7-1.1-1.3-1C15.7,2.7,15.3,3.1,15.2,3.7z"/>
		<path id="Caminho_9" class="st0" d="M25.2,3.7v2.4h-1V3.8c0-0.7-0.4-1.1-1-1.1c-0.6-0.1-1.1,0.4-1.2,1c0,0.1,0,0.2,0,0.3v2.2h-1
			V1.9h0.9v0.5c0.4-0.4,0.9-0.6,1.4-0.6c0.9-0.1,1.7,0.6,1.8,1.5C25.2,3.5,25.2,3.6,25.2,3.7z"/>
		<path id="Caminho_10" class="st0" d="M32.2,0.3v5.9h-0.9V5.6c-0.4,0.4-0.9,0.6-1.4,0.6c-1.1,0.1-2.1-0.8-2.1-1.9
			c0-0.1,0-0.2,0-0.2c-0.1-1.1,0.8-2.1,1.9-2.2c0.1,0,0.1,0,0.2,0c0.5,0,1,0.2,1.4,0.6V0.3H32.2z M31.2,4c0-0.7-0.6-1.2-1.3-1.2
			c-0.7,0-1.2,0.6-1.2,1.3c0,0.7,0.6,1.2,1.3,1.2c0.7,0,1.2-0.5,1.3-1.2C31.2,4.1,31.2,4.1,31.2,4z"/>
		<path id="Caminho_11" class="st0" d="M38.5,3.6v2.5h-0.9V5.6c-0.3,0.4-0.8,0.6-1.3,0.6c-1,0-1.6-0.5-1.6-1.3s0.5-1.3,1.8-1.3h1.1
			V3.6c0-0.6-0.3-0.9-1.1-0.9c-0.5,0-0.9,0.1-1.3,0.4l-0.4-0.7C35.4,2,36,1.8,36.6,1.9c0.9-0.1,1.7,0.5,1.8,1.4
			C38.5,3.4,38.5,3.5,38.5,3.6z M37.5,4.8V4.4h-1.1c-0.7,0-0.9,0.3-0.9,0.6s0.3,0.6,0.8,0.6C36.9,5.5,37.3,5.2,37.5,4.8z"/>
		<path id="Caminho_12" class="st0" d="M48.4,3.7v2.4h-1V3.8c0-0.7-0.3-1.1-0.9-1.1c-0.7,0-1.1,0.4-1.1,1.3v2.2h-1.1V3.8
			c0-0.7-0.3-1.1-0.9-1.1c-0.7,0-1.1,0.4-1.1,1.3v2.2h-1V1.9h0.9v0.5C42.5,2,43,1.8,43.6,1.8c0.6,0,1.1,0.2,1.4,0.7
			c0.4-0.5,1-0.8,1.6-0.7c0.9-0.1,1.7,0.6,1.8,1.5C48.4,3.5,48.4,3.6,48.4,3.7z"/>
		<path id="Caminho_13" class="st0" d="M55.2,4.4h-3.3c0.2,0.6,0.7,1,1.4,1c0.4,0,0.8-0.1,1.1-0.5l0.5,0.6c-0.4,0.5-1.1,0.7-1.7,0.7
			c-1.2,0.1-2.3-0.8-2.4-2c0-0.1,0-0.1,0-0.2c0-1.2,0.9-2.1,2-2.2c0,0,0.1,0,0.1,0C54,1.7,55,2.6,55,3.7c0,0.1,0,0.2,0,0.2
			C55.1,4.1,55.2,4.2,55.2,4.4z M51.8,3.7h2.4c-0.1-0.7-0.7-1.1-1.3-1C52.3,2.7,51.9,3.1,51.8,3.7z"/>
		<path id="Caminho_14" class="st0" d="M61.8,3.7v2.4h-1V3.8c0-0.7-0.4-1.1-1-1.1c-0.6-0.1-1.1,0.4-1.2,1c0,0.1,0,0.2,0,0.3v2.2h-1
			V1.9h0.9v0.5C58.9,2,59.4,1.8,60,1.8c0.9-0.1,1.7,0.6,1.8,1.5C61.8,3.5,61.8,3.6,61.8,3.7z"/>
		<path id="Caminho_15" class="st0" d="M67.1,5.9c-0.3,0.2-0.6,0.3-0.9,0.3c-0.7,0.1-1.4-0.4-1.4-1.1c0-0.1,0-0.2,0-0.3v-2H64V1.8
			h0.7v-1h1v1h1.1v0.8h-1.1v2c0,0.4,0.2,0.7,0.6,0.7c0.2,0,0.4-0.1,0.5-0.2L67.1,5.9z"/>
		<path id="Caminho_16" class="st0" d="M68.9,4c0-1.2,0.9-2.3,2.2-2.3c1.2,0,2.3,0.9,2.3,2.2s-0.9,2.3-2.2,2.3c0,0,0,0-0.1,0
			c-1.2,0.1-2.2-0.8-2.2-2C68.9,4.1,68.9,4.1,68.9,4z M72.4,4c0-0.7-0.6-1.2-1.3-1.2c-0.7,0-1.2,0.6-1.2,1.3c0,0.7,0.6,1.2,1.3,1.2
			c0.7,0,1.2-0.5,1.3-1.2C72.4,4.1,72.4,4.1,72.4,4z"/>
		<path id="Caminho_17" class="st0" d="M79.2,4c0-1.2,0.9-2.3,2.2-2.3c1.2,0,2.3,0.9,2.3,2.2s-0.9,2.3-2.2,2.3c0,0,0,0-0.1,0
			c-1.2,0.1-2.2-0.8-2.2-2C79.2,4.1,79.2,4.1,79.2,4z M82.7,4c0-0.7-0.6-1.2-1.3-1.2c-0.7,0-1.2,0.6-1.2,1.3c0,0.7,0.6,1.2,1.3,1.2
			c0.7,0,1.2-0.5,1.3-1.2C82.7,4.1,82.7,4.1,82.7,4z"/>
		<path id="Caminho_18" class="st0" d="M90.4,3.7v2.4h-1V3.8c0-0.7-0.4-1.1-1-1.1c-0.6-0.1-1.1,0.4-1.2,1c0,0.1,0,0.2,0,0.3v2.2h-1
			V1.9h0.9v0.5C87.5,2,88,1.8,88.6,1.8c0.9-0.1,1.7,0.6,1.8,1.5C90.4,3.5,90.4,3.6,90.4,3.7z"/>
		<path id="Caminho_19" class="st0" d="M93.1,0.3h1v5.9h-1V0.3z"/>
		<path id="Caminho_20" class="st0" d="M96.8,0.6c0-0.4,0.2-0.7,0.6-0.7c0.4,0,0.7,0.2,0.7,0.6s-0.2,0.7-0.6,0.7c0,0,0,0-0.1,0
			C97.1,1.2,96.8,0.9,96.8,0.6z M97,1.9h1v4.2h-1V1.9z"/>
		<path id="Caminho_21" class="st0" d="M104.9,3.7v2.4h-1V3.8c0-0.7-0.4-1.1-1-1.1c-0.6-0.1-1.1,0.4-1.2,1c0,0.1,0,0.2,0,0.3v2.2h-1
			V1.9h0.9v0.5c0.4-0.4,0.9-0.6,1.4-0.6c0.9-0.1,1.7,0.6,1.8,1.5C104.9,3.5,104.9,3.6,104.9,3.7z"/>
		<path id="Caminho_22" class="st0" d="M111.7,4.4h-3.3c0.2,0.6,0.7,1,1.4,1c0.4,0,0.8-0.1,1.1-0.5l0.5,0.6
			c-0.4,0.5-1.1,0.7-1.7,0.7c-1.2,0.1-2.3-0.8-2.4-2c0-0.1,0-0.1,0-0.2c0-1.2,0.9-2.1,2-2.2c0,0,0.1,0,0.1,0
			c1.1-0.1,2.1,0.8,2.1,1.9c0,0.1,0,0.2,0,0.2C111.6,4.1,111.7,4.2,111.7,4.4z M108.4,3.7h2.4c-0.1-0.6-0.6-1.1-1.2-1.1
			C108.9,2.6,108.4,3.1,108.4,3.7C108.4,3.7,108.4,3.7,108.4,3.7L108.4,3.7z"/>
	</g>
</g>
</svg>
