<?xml version="1.0" encoding="utf-8"?>
<!-- Generator: Adobe Illustrator 24.2.3, SVG Export Plug-In . SVG Version: 6.00 Build 0)  -->
<svg version="1.1" id="Layer_1" xmlns="http://www.w3.org/2000/svg" xmlns:xlink="http://www.w3.org/1999/xlink" x="0px" y="0px"
	 viewBox="0 0 772.29 538.67" style="enable-background:new 0 0 772.29 538.67;" xml:space="preserve">
<style type="text/css">
	.st0{fill:#7E7D7F;}
	.st1{fill:#FFFFFF;}
	.st2{fill:#C1C0C2;}
	.st3{fill:#926347;}
	.st4{fill:#012F67;}
	.st5{fill:#243058;}
	.st6{fill:#F1A300;}
	.st7{fill:#185DC2;}
	.st8{fill:#27333E;}
	.st9{fill:#B2C8E8;}
	.st10{opacity:0.4;}
	.st11{fill:#E2E2E2;}
	.st12{fill:#3B3B3B;}
	.st13{fill:#AFAFAF;}
	.st14{fill:#F9C511;}
	.st15{fill:#E8ECEF;}
	.st16{fill:#A09EA1;}
	.st17{fill:none;stroke:#F1A300;stroke-width:5;stroke-linecap:round;stroke-miterlimit:10;}
</style>
<g id="Grupo_16" transform="translate(-417.336 -134.667)">
	<g id="Grupo_7" transform="translate(417.336 289.104)">
		<g id="Grupo_4" transform="translate(16.053 27.223)">
			<path id="Caminho_6" class="st0" d="M6.18,5.83l111.95,10.78l7.76,29.88L20.74,13.53L8.28,9.67L6.18,5.83z"/>
		</g>
		<g id="Grupo_5" transform="translate(0 8.311)">
			<path id="Caminho_7" class="st1" d="M161.58,5.83L6.18,22.93L98.92,83.6l30.84-40.54L25.22,26.87l108.96,8.65L161.58,5.83z"/>
		</g>
		<g id="Grupo_6" transform="translate(141.963 0)">
			<path id="Caminho_8" class="st2" d="M173.25,242.26c-13.16,10.72-27.95,19.26-43.81,25.32l-0.71-1.84
				c15.66-5.98,30.27-14.42,43.27-25.01c15.12-12.35,61.13-49.92,52.58-95c-6.63-34.99-43.14-62.87-88.81-67.81
				c-9.46-1.28-18.5-4.73-26.42-10.06c-4.3,3.62-8.92,6.83-13.82,9.58C59.4,97.49,18.01,79.58,6.18,73.61l0.89-1.76
				c11.61,5.86,52.22,23.44,87.51,3.86c4.64-2.61,9.03-5.63,13.13-9.02l-0.47-0.35C91.67,54.67,84.47,42.37,85.82,29.79
				c1.08-10.03,7.66-21.74,17.74-23.67c11.65-2.23,24.17,8.9,27.17,19.98c3.72,13.72-6.94,29.17-19.82,40.42
				c7.55,4.99,16.13,8.21,25.1,9.43c46.5,5.03,83.71,33.57,90.51,69.4c4.43,23.38-5.32,44.69-18.03,61.67
				C196.08,223.62,180.84,236.06,173.25,242.26z M87.79,30c-1.27,11.84,5.67,23.54,20.64,34.76c0.28,0.21,0.56,0.42,0.84,0.62
				c12.59-10.83,23.1-25.71,19.56-38.76c-2.78-10.26-14.26-20.6-24.9-18.56c-4.18,0.8-7.7,3.51-10.4,7.1
				C90.36,19.52,88.38,24.64,87.79,30z"/>
		</g>
	</g>
	<g id="Grupo_9" transform="translate(909.648 256.248)">
		<circle id="Elipse_2" class="st1" cx="71.5" cy="71.14" r="27.56"/>
		<g id="Grupo_8" transform="translate(0 0)">
			<path id="Caminho_9" class="st1" d="M133.05,60.52H121.3c-1.3-6.08-3.7-11.87-7.1-17.07l8.32-8.32c1.47-1.47,1.47-3.85,0-5.32
				l-9.69-9.69c-1.47-1.47-3.85-1.47-5.32,0c0,0,0,0,0,0l-8.32,8.32c-5.21-3.4-10.99-5.8-17.07-7.1V9.6c0-2.08-1.69-3.76-3.76-3.76
				l0,0h-13.7c-2.08,0-3.76,1.69-3.76,3.76v0v11.74c-6.08,1.3-11.87,3.7-17.07,7.1l-8.32-8.32c-1.47-1.47-3.85-1.47-5.32,0
				c0,0,0,0,0,0l-9.7,9.69c-1.47,1.47-1.47,3.85,0,5.32l8.32,8.32c-3.4,5.21-5.8,10.99-7.1,17.07H9.95c-2.08,0-3.76,1.69-3.76,3.76
				v0V78c0,2.08,1.69,3.76,3.76,3.76l0,0h11.74c1.3,6.08,3.7,11.87,7.1,17.07l-8.32,8.32c-1.47,1.47-1.47,3.85,0,5.32l9.7,9.69
				c1.47,1.47,3.85,1.47,5.32,0c0,0,0,0,0,0l8.32-8.32c5.21,3.4,10.99,5.8,17.07,7.1v11.74c0,2.08,1.69,3.76,3.76,3.76l0,0h13.71
				c2.08,0,3.76-1.69,3.76-3.76v0v-11.75c6.08-1.3,11.87-3.7,17.07-7.1l8.32,8.32c1.47,1.47,3.85,1.47,5.32,0c0,0,0,0,0,0l9.69-9.69
				c1.47-1.47,1.47-3.85,0-5.32l-8.32-8.32c3.4-5.21,5.8-10.99,7.1-17.07h11.73c2.08,0,3.76-1.69,3.76-3.76v0V64.29
				C136.81,62.21,135.12,60.52,133.05,60.52z M70.93,106.9c-19.75,0-35.75-16.01-35.75-35.75s16.01-35.75,35.75-35.75
				c19.75,0,35.75,16.01,35.75,35.75v0C106.68,90.89,90.68,106.9,70.93,106.9L70.93,106.9z"/>
		</g>
	</g>
	<g id="Grupo_11" transform="translate(1033.869 263.689)">
		<circle id="Elipse_3" class="st1" cx="33.88" cy="33.52" r="11.69"/>
		<g id="Grupo_10" transform="translate(0)">
			<path id="Caminho_10" class="st1" d="M59.97,29.02h-4.98c-0.55-2.58-1.57-5.03-3.01-7.24l3.53-3.53c0.62-0.62,0.62-1.63,0-2.26
				l-4.11-4.11c-0.62-0.62-1.63-0.62-2.26,0l-3.53,3.53c-2.21-1.44-4.66-2.46-7.24-3.01V7.43c0-0.88-0.72-1.6-1.6-1.6h-5.81
				c-0.88,0-1.6,0.72-1.6,1.6v4.98c-2.58,0.55-5.03,1.57-7.24,3.01l-3.53-3.53c-0.62-0.62-1.63-0.62-2.26,0L12.23,16
				c-0.62,0.62-0.62,1.63,0,2.26l3.53,3.53c-1.44,2.21-2.46,4.66-3.01,7.24H7.77c-0.88,0-1.6,0.72-1.6,1.6v5.81
				c0,0.88,0.72,1.6,1.6,1.6h4.98c0.55,2.58,1.57,5.03,3.01,7.24l-3.53,3.53c-0.62,0.62-0.62,1.63,0,2.26l4.11,4.11
				c0.62,0.62,1.63,0.62,2.26,0l3.53-3.53c2.21,1.44,4.66,2.46,7.24,3.01v4.98c0,0.88,0.72,1.6,1.6,1.6h5.81
				c0.88,0,1.6-0.72,1.6-1.6v-4.98c2.58-0.55,5.03-1.57,7.24-3.01l3.53,3.53c0.62,0.62,1.63,0.62,2.26,0l4.11-4.11
				c0.62-0.62,0.62-1.63,0-2.26l-3.53-3.53c1.44-2.21,2.46-4.66,3.01-7.24h4.98c0.88,0,1.6-0.72,1.6-1.6v-5.82
				C61.57,29.74,60.85,29.02,59.97,29.02z M33.64,48.68c-8.37,0-15.16-6.79-15.16-15.16s6.79-15.16,15.16-15.16
				S48.8,25.15,48.8,33.52C48.8,41.89,42.01,48.68,33.64,48.68C33.64,48.68,33.64,48.68,33.64,48.68L33.64,48.68z"/>
		</g>
	</g>
	<g id="Grupo_13" transform="translate(1014.537 316.829)">
		<circle id="Elipse_4" class="st1" cx="87.54" cy="87.19" r="34.34"/>
		<g id="Grupo_12">
			<path id="Caminho_11" class="st1" d="M164.22,73.96h-14.63c-1.61-7.57-4.61-14.78-8.84-21.27l10.36-10.36
				c1.83-1.83,1.83-4.8,0-6.63l-12.08-12.08c-1.83-1.83-4.8-1.83-6.63,0l-10.36,10.36c-6.49-4.23-13.7-7.23-21.27-8.84V10.52
				c0-2.59-2.1-4.69-4.69-4.69H79.01c-2.59,0-4.69,2.1-4.69,4.69v14.62c-7.57,1.62-14.78,4.61-21.27,8.84L42.68,23.62
				c-1.83-1.83-4.8-1.83-6.63,0L23.98,35.7c-1.83,1.83-1.83,4.8,0,6.63c0,0,0,0,0,0l10.36,10.36c-4.23,6.49-7.22,13.7-8.84,21.27
				H10.87c-2.59,0-4.69,2.1-4.69,4.69v17.08c0,2.59,2.1,4.69,4.69,4.69H25.5c1.62,7.57,4.61,14.78,8.84,21.27l-10.36,10.36
				c-1.83,1.83-1.83,4.8,0,6.63c0,0,0,0,0,0l12.08,12.08c1.83,1.83,4.8,1.83,6.63,0l10.36-10.36c6.49,4.23,13.7,7.22,21.27,8.84
				v14.63c0,2.59,2.1,4.69,4.69,4.69h17.08c2.59,0,4.69-2.1,4.69-4.69v-14.62c7.57-1.62,14.78-4.61,21.27-8.84l10.36,10.36
				c1.83,1.83,4.8,1.83,6.63,0l12.08-12.08c1.83-1.83,1.83-4.8,0-6.63l-10.36-10.36c4.23-6.49,7.22-13.7,8.84-21.27h14.63
				c2.59,0,4.69-2.1,4.69-4.69V78.65C168.9,76.06,166.81,73.96,164.22,73.96z M86.84,131.73c-24.6,0-44.54-19.94-44.54-44.54
				s19.94-44.54,44.54-44.54c24.6,0,44.54,19.94,44.54,44.54c0,0,0,0,0,0C131.38,111.79,111.44,131.73,86.84,131.73L86.84,131.73
				L86.84,131.73z"/>
		</g>
	</g>
	<g id="Grupo_38" transform="translate(698.737 134.667)">
		<g id="Grupo_37">
			<g id="Grupo_10-2" transform="translate(134.184 17.733)">
				<g id="Grupo_9-2">
					<path id="Caminho_33" class="st3" d="M6.19,16.55c1.38-2.59,3.2-4.93,5.36-6.92c2.06-1.86,4.84-4.39,7.59-3.68
						c0.71,0.18,1.36,0.55,1.87,1.07c1.45,1.51,1.25,3.98,0.71,6.63c-1.13,5.31-3.23,10.36-6.19,14.9
						c-1.64,2.53-3.48,4.93-5.48,7.18L6.19,16.55z"/>
				</g>
			</g>
			<g id="Grupo_12-2" transform="translate(105.475)">
				<g id="Grupo_11-2">
					<path id="Caminho_34" class="st3" d="M17.92,13.7c0.57-1.33,0.76-2.79,0.54-4.21c-0.16-1-0.46-2.79-1.8-3.43
						c-1.22-0.58-2.61,0.11-3.39,0.48C12.05,7.19,11,8.12,10.21,9.27c-1.46,1.87-2.81,3.83-4.03,5.86
						C10.09,14.66,14,14.16,17.92,13.7z"/>
				</g>
			</g>
			<g id="Grupo_14" transform="translate(138.711 37.121)">
				<g id="Grupo_13-2">
					<path id="Caminho_35" class="st3" d="M10.8,45.16c4.67-6.88,8.01-11.71,9.93-14.49c3.16-4.71,5.72-9.79,7.64-15.13
						c0.5-1.46,1.37-4.23,0.13-6.75c-0.61-1.39-1.8-2.44-3.25-2.88c-1.27-0.28-2.43,0.2-4.76,1.71c-2.36,1.48-4.57,3.19-6.6,5.11
						c-2.93,2.98-5.52,6.29-7.7,9.86C7.73,30.11,9.27,37.63,10.8,45.16z"/>
				</g>
			</g>
			<g id="Grupo_16-2" transform="translate(146.04 96.718)">
				<g id="Grupo_15">
					<path id="Caminho_36" class="st3" d="M6.18,16.84c3.4-1.22,6.73-2.63,9.98-4.21c4.45-2.18,9.25-3.6,13.65-5.87
						c1.36-0.85,3-1.13,4.57-0.78c1.03,0.32,1.9,1.05,2.39,2.01c0.6,1.56,0.22,3.33-0.96,4.51c-6.56,8.09-15.34,14.1-25.27,17.28
						C9.09,25.46,7.63,21.15,6.18,16.84z"/>
				</g>
			</g>
			<g id="Grupo_18" transform="translate(83.988 5.533)">
				<g id="Grupo_17">
					<path id="Caminho_37" class="st4" d="M55.72,14.53c-0.08-0.6-0.21-1.19-0.4-1.76c-1.66-5.23-7.25-8.13-12.48-6.47
						c-0.01,0-0.01,0-0.02,0.01c-12.22,2.15-24.43,4.29-36.64,6.43c1.19,54.89,2.38,109.79,3.58,164.69
						c20.9-3.71,41.81-7.43,62.72-11.15c2.3-0.24,4.43-1.34,5.95-3.09c3.09-3.7,1.65-8.41,1.54-8.7
						C71.89,107.84,63.81,61.18,55.72,14.53L55.72,14.53z"/>
				</g>
			</g>
			<g id="Grupo_20" transform="translate(48.326 5.568)">
				<g id="Grupo_19">
					<path id="Caminho_38" class="st5" d="M79.02,6.17c0,0-54.21,9.59-64.03,11.07s-8.77,9.11-8.77,9.11l16.81,98.85l24.74,48.94
						c0,0,48.86-8.81,57.93-10.55s6.86-7.81,6.86-7.81L87.93,11.41C86.63,3.83,79.02,6.17,79.02,6.17z"/>
				</g>
			</g>
			<g id="Grupo_22" transform="translate(50.834 8.496)">
				<g id="Grupo_21">
					<path id="Caminho_39" class="st1" d="M75.08,6.05c0,0-53.7,9.49-62.23,10.91s-6.44,7.22-6.44,7.22s13.34,74.32,14.81,86.04
						c1.22,9.59,6.96,9.44,6.96,9.44s48.92-8.73,61.63-10.78c10.82-1.75,8.76-8.76,8.76-8.76L82.93,9.87
						C81.98,4.46,75.08,6.05,75.08,6.05z"/>
				</g>
			</g>
			<g id="Grupo_24" transform="translate(65.765 39.395)">
				<g id="Grupo_23">
					<circle id="Elipse_2-2" class="st6" cx="38.99" cy="38.63" r="32.8"/>
				</g>
			</g>
			<g id="Grupo_26" transform="translate(81.38 56.05)">
				<g id="Grupo_25">
					<path id="Caminho_40" class="st1" d="M6.18,30.33l12.36,7.55L37.92,6.78l-2.1-0.95L17.94,34.21L7.63,28.21L6.18,30.33z"/>
				</g>
			</g>
			<g id="Grupo_28" transform="translate(85.224 121.287)">
				<g id="Grupo_27">
					<path id="Caminho_41" class="st7" d="M6.28,18.41L6.28,18.41L6.28,18.41c-0.55-3.01,1.44-5.88,4.44-6.43c0.01,0,0.01,0,0.02,0
						l33.38-6.05h0.01c3-0.55,5.87,1.44,6.42,4.44c0,0.01,0,0.01,0,0.02l0,0v0.01c0.55,3-1.44,5.87-4.44,6.42c-0.01,0-0.01,0-0.02,0
						l-33.38,6.05C9.71,23.39,6.84,21.41,6.28,18.41z"/>
				</g>
			</g>
			<g id="Grupo_30" transform="translate(95.618 127.509)">
				<g id="Grupo_29">
					<path id="Caminho_42" class="st1" d="M28.67,7.18L6.98,10.67H6.97c-0.36,0.07-0.71-0.18-0.78-0.54c0-0.01,0-0.02,0-0.02
						C6.13,9.74,6.38,9.4,6.75,9.33l21.69-3.49h0.01c0.36-0.07,0.71,0.18,0.78,0.54c0,0.01,0,0.02,0,0.02
						c0.06,0.32-0.11,0.64-0.42,0.75C28.77,7.17,28.73,7.16,28.67,7.18z"/>
				</g>
			</g>
			<g id="Grupo_32" transform="translate(89.244 138.698)">
				<g id="Grupo_31">
					<path id="Caminho_43" class="st1" d="M45.71,7.19L6.96,13.87c-0.36,0.05-0.69-0.19-0.76-0.55c-0.06-0.37,0.18-0.72,0.54-0.8
						l38.75-6.68c0.37-0.06,0.72,0.19,0.78,0.56C46.32,6.77,46.08,7.12,45.71,7.19L45.71,7.19z"/>
				</g>
			</g>
			<g id="Grupo_34" transform="translate(99.404 145.675)">
				<g id="Grupo_33">
					<path id="Caminho_44" class="st1" d="M27.17,7.19l-20.22,3.4c-0.36,0.05-0.69-0.19-0.76-0.55c-0.06-0.37,0.18-0.72,0.54-0.8
						l20.21-3.4c0.32-0.05,0.63,0.13,0.75,0.43c0.14,0.35-0.03,0.75-0.39,0.89c0,0,0,0,0,0C27.27,7.18,27.22,7.19,27.17,7.19z"/>
				</g>
			</g>
			<g id="Grupo_36" transform="translate(0 60.2)">
				<g id="Grupo_35">
					<path id="Caminho_45" class="st3" d="M87.94,16.45c-5.74,9.88-17.6,16.78-17.6,16.78s0.31,4.2-2.77,15.26
						c-3.08,11.06-0.49,16.09,1.13,18.23s5.25,3.99,16.45,18.86s12.78,35.99,12.78,35.99l30.06-4.99c-0.37,3.7-4.97,10.34-16.7,18.7
						s-13.54,15.06-13.54,15.06l-25.97,86.15c0,0-12.04-4.8-34.52-5.47S6.18,216.77,6.18,216.77s36.39-81.37,38.8-87.81
						c1.57-4.36,2.8-8.84,3.65-13.39c0,0-7.59-27.1-12.03-40s-1.57-16-1.57-16s17.73-32.29,19.99-37.16s4.43-5.38,4.43-5.38
						L88.33,6.01C90.23,5.27,93.69,6.56,87.94,16.45z"/>
				</g>
			</g>
		</g>
	</g>
	<circle id="Elipse_5" class="st8" cx="782.46" cy="485.18" r="133.37"/>
	<circle id="Elipse_6" class="st7" cx="782.46" cy="485.18" r="151.22"/>
	<circle id="Elipse_7" class="st9" cx="782.46" cy="485.18" r="127.5"/>
	<g id="Grupo_14-2" transform="translate(658.043 351.85)" class="st10">
		<path id="Caminho_12" class="st11" d="M103.78,40.12c70.42,0,127.5,57.08,127.5,127.5c0,16.36-3.15,32.56-9.27,47.73
			c45.3-53.9,38.34-134.32-15.57-179.63C152.54-9.58,72.12-2.61,26.81,51.29c-8.64,10.28-15.6,21.86-20.63,34.32
			C30.38,56.75,66.12,40.09,103.78,40.12z"/>
	</g>
	<rect id="Retângulo_2" x="779.29" y="365.43" class="st1" width="5.28" height="19.02"/>
	
		<rect id="Retângulo_3" x="828.09" y="387.08" transform="matrix(0.5043 -0.8635 0.8635 0.5043 78.6548 916.4615)" class="st1" width="19.02" height="5.28"/>
	
		<rect id="Retângulo_4" x="868.71" y="427.92" transform="matrix(0.871 -0.4913 0.4913 0.871 -98.2322 487.0485)" class="st1" width="19.02" height="5.28"/>
	
		<rect id="Retângulo_5" x="890.06" y="476.8" transform="matrix(0.015 -0.9999 0.9999 0.015 393.0793 1371.6222)" class="st1" width="5.28" height="19.02"/>
	
		<rect id="Retângulo_6" x="874.44" y="532.24" transform="matrix(0.517 -0.856 0.856 0.517 -40.0947 1012.4451)" class="st1" width="5.28" height="19.02"/>
	
		<rect id="Retângulo_7" x="833" y="572.24" transform="matrix(0.8782 -0.4782 0.4782 0.8782 -176.4563 470.4519)" class="st1" width="5.28" height="19.02"/>
	
		<rect id="Retângulo_8" x="770.18" y="592.75" transform="matrix(0.03 -0.9996 0.9996 0.03 161.199 1356.8883)" class="st1" width="19.02" height="5.28"/>
	
		<rect id="Retângulo_9" x="714.97" y="576.31" transform="matrix(0.53 -0.848 0.848 0.53 -150.4422 886.4686)" class="st1" width="19.02" height="5.28"/>
	
		<rect id="Retângulo_10" x="675.6" y="534.27" transform="matrix(0.8853 -0.465 0.465 0.8853 -171.0935 380.1643)" class="st1" width="19.02" height="5.28"/>
	
		<rect id="Retângulo_11" x="669.66" y="471.25" transform="matrix(0.0449 -0.999 0.999 0.0449 161.8271 1130.7838)" class="st1" width="5.28" height="19.02"/>
	
		<rect id="Retângulo_12" x="686.93" y="416.3" transform="matrix(0.5429 -0.8398 0.8398 0.5429 -42.3834 773.757)" class="st1" width="5.28" height="19.02"/>
	
		<rect id="Retângulo_13" x="729.55" y="377.56" transform="matrix(0.8922 -0.4517 0.4517 0.8922 -95.8853 372.4709)" class="st1" width="5.28" height="19.02"/>
	<rect id="Retângulo_14" x="781.14" y="396.16" class="st12" width="2.64" height="83.39"/>
	
		<rect id="Retângulo_15" x="810.94" y="473.83" transform="matrix(0.468 -0.8837 0.8837 0.468 -12.8807 987.3226)" class="st12" width="5.27" height="61.05"/>
	<g id="Grupo_178" transform="translate(448.681 456.61)">
		<g id="Grupo_154" transform="translate(4.07 3.779)">
			<path id="Caminho_79" class="st13" d="M171.96,28.41V13.72c0.25-4.24-2.98-7.89-7.23-8.15c-4.25-0.25-7.89,2.98-8.15,7.23
				c-0.01,0.17-0.01,0.35-0.01,0.53v15.09h-49.29v-14.7c0.25-4.24-2.98-7.89-7.23-8.15c-4.25-0.25-7.89,2.98-8.15,7.23
				c-0.01,0.17-0.01,0.35-0.01,0.53v15.09H42.6v-14.7c0.11-4.25-3.25-7.78-7.5-7.89c-4.25-0.11-7.78,3.25-7.89,7.5l0,0v15.09H6.18
				v178.7h186.8V28.41L171.96,28.41z"/>
		</g>
		<g id="Grupo_177">
			<g id="Grupo_155" transform="translate(0 22.374)">
				<rect id="Retângulo_11-2" x="6.18" y="5.83" class="st5" width="186.77" height="35.72"/>
			</g>
			<g id="Grupo_156" transform="translate(21.025)">
				<path id="Caminho_80" class="st1" d="M18.98,49.46H8.74c-1.41,0-2.56-1.14-2.56-2.56c0,0,0,0,0,0V8.39
					c0-1.41,1.14-2.56,2.56-2.56c0,0,0,0,0,0h10.24c1.41,0,2.56,1.14,2.56,2.56c0,0,0,0,0,0V46.9
					C21.54,48.32,20.4,49.46,18.98,49.46z"/>
			</g>
			<g id="Grupo_157" transform="translate(85.689)">
				<path id="Caminho_81" class="st1" d="M18.98,49.46H8.74c-1.41,0-2.56-1.14-2.56-2.56c0,0,0,0,0,0V8.39
					c0-1.41,1.14-2.56,2.56-2.56c0,0,0,0,0,0h10.24c1.41,0,2.56,1.14,2.56,2.56c0,0,0,0,0,0V46.9
					C21.54,48.32,20.4,49.46,18.98,49.46z"/>
			</g>
			<g id="Grupo_158" transform="translate(150.351)">
				<path id="Caminho_82" class="st1" d="M18.98,49.46H8.74c-1.41,0-2.56-1.14-2.56-2.56c0,0,0,0,0,0V8.39
					c0-1.41,1.14-2.56,2.56-2.56c0,0,0,0,0,0h10.24c1.41,0,2.56,1.14,2.56,2.56c0,0,0,0,0,0V46.9
					C21.54,48.32,20.4,49.46,18.98,49.46z"/>
			</g>
			<g id="Grupo_159" transform="translate(0 58.108)">
				<rect id="Retângulo_12-2" x="6.18" y="5.83" class="st1" width="186.77" height="142.97"/>
			</g>
			<g id="Grupo_160" transform="translate(0 58.108)">
				<rect id="Retângulo_13-2" x="6.18" y="5.83" class="st1" width="186.77" height="142.97"/>
			</g>
			<g id="Grupo_161" transform="translate(85.689)">
				<path id="Caminho_83" class="st1" d="M18.98,49.46H8.74c-1.41,0-2.56-1.14-2.56-2.56c0,0,0,0,0,0V8.39
					c0-1.41,1.14-2.56,2.56-2.56c0,0,0,0,0,0h10.24c1.41,0,2.56,1.14,2.56,2.56c0,0,0,0,0,0V46.9
					C21.54,48.32,20.4,49.46,18.98,49.46z"/>
			</g>
			<g id="Grupo_162" transform="translate(150.351)">
				<path id="Caminho_84" class="st1" d="M18.98,49.46H8.74c-1.41,0-2.56-1.14-2.56-2.56c0,0,0,0,0,0V8.39
					c0-1.41,1.14-2.56,2.56-2.56c0,0,0,0,0,0h10.24c1.41,0,2.56,1.14,2.56,2.56c0,0,0,0,0,0V46.9
					C21.54,48.32,20.4,49.46,18.98,49.46z"/>
			</g>
			<g id="Grupo_163" transform="translate(0 58.108)">
				<rect id="Retângulo_14-2" x="6.18" y="5.83" class="st1" width="186.77" height="142.97"/>
			</g>
			<g id="Grupo_164" transform="translate(57.352 72.345)">
				<rect id="Retângulo_15-2" x="6.18" y="5.83" class="st6" width="28.33" height="28.33"/>
			</g>
			<g id="Grupo_165" transform="translate(101.06 72.345)">
				<rect id="Retângulo_16" x="6.18" y="5.83" class="st6" width="28.33" height="28.33"/>
			</g>
			<g id="Grupo_166" transform="translate(143.877 72.345)">
				<rect id="Retângulo_17" x="6.18" y="5.83" class="st6" width="28.33" height="28.33"/>
			</g>
			<g id="Grupo_167" transform="translate(57.352 114.919)">
				<rect id="Retângulo_18" x="6.18" y="5.83" class="st6" width="28.33" height="28.33"/>
			</g>
			<g id="Grupo_168" transform="translate(143.877 114.919)">
				<rect id="Retângulo_19" x="6.18" y="5.83" class="st6" width="28.33" height="28.33"/>
			</g>
			<g id="Grupo_169" transform="translate(14.534 158.645)">
				<rect id="Retângulo_20" x="6.18" y="5.83" class="st6" width="28.33" height="28.33"/>
			</g>
			<g id="Grupo_170" transform="translate(14.534 116.734)">
				<rect id="Retângulo_21" x="6.18" y="5.83" class="st6" width="28.33" height="28.33"/>
			</g>
			<g id="Grupo_171" transform="translate(101.06 158.645)">
				<rect id="Retângulo_22" x="6.18" y="5.83" class="st6" width="28.33" height="28.33"/>
			</g>
			<g id="Grupo_172" transform="translate(125.522 114.587)">
				<path id="Caminho_85" class="st14" d="M6.18,5.83"/>
			</g>
			<g id="Grupo_173" transform="translate(101.724 116.537)">
				<path id="Caminho_86" class="st7" d="M31.4,30.71l-0.33,0.33c-1.19,1.2-3.13,1.2-4.33,0.01l-0.01-0.01L7.09,11.41
					c-1.2-1.19-1.2-3.13-0.01-4.33l0.01-0.01l0.33-0.33c1.19-1.2,3.13-1.2,4.33-0.01l0.01,0.01L31.4,26.37
					C32.6,27.56,32.6,29.51,31.4,30.71C31.4,30.71,31.4,30.71,31.4,30.71L31.4,30.71z"/>
			</g>
			<g id="Grupo_174" transform="translate(101.724 116.534)">
				<path id="Caminho_87" class="st7" d="M31.06,6.74l0.33,0.33c1.2,1.19,1.2,3.13,0.01,4.33l-0.01,0.01L11.76,31.05
					c-1.19,1.2-3.13,1.2-4.33,0.01l-0.01-0.01l-0.33-0.33c-1.2-1.19-1.2-3.13-0.01-4.33l0.01-0.01L26.72,6.74
					c1.19-1.2,3.13-1.21,4.33-0.02C31.05,6.72,31.06,6.73,31.06,6.74L31.06,6.74z"/>
			</g>
			<g id="Grupo_175" transform="translate(58.47 159.81)">
				<path id="Caminho_88" class="st7" d="M31.39,30.71l-0.33,0.33c-1.19,1.2-3.13,1.2-4.33,0.01l-0.01-0.01L7.09,11.41
					c-1.2-1.19-1.2-3.13-0.01-4.33l0.01-0.01l0.33-0.33c1.19-1.2,3.13-1.2,4.33-0.01l0.01,0.01l19.63,19.63
					C32.59,27.57,32.59,29.51,31.39,30.71C31.4,30.71,31.39,30.71,31.39,30.71L31.39,30.71z"/>
			</g>
			<g id="Grupo_176" transform="translate(58.453 159.793)">
				<path id="Caminho_89" class="st7" d="M31.06,6.74l0.33,0.33c1.2,1.19,1.2,3.13,0.01,4.33l-0.01,0.01L11.76,31.04
					c-1.19,1.2-3.13,1.2-4.33,0.01l-0.01-0.01L7.09,30.7c-1.2-1.19-1.2-3.13-0.01-4.33l0.01-0.01L26.72,6.74
					C27.92,5.54,29.86,5.54,31.06,6.74C31.06,6.73,31.06,6.74,31.06,6.74L31.06,6.74z"/>
			</g>
		</g>
	</g>
	<g id="Grupo_15-2" transform="translate(931.906 390.329)">
		<path id="Retângulo_16-2" class="st5" d="M8.04,5.83h144.93c1.03,0,1.86,0.83,1.86,1.86v11.96l0,0H6.18l0,0V7.69
			C6.18,6.66,7.02,5.83,8.04,5.83C8.04,5.83,8.04,5.83,8.04,5.83z"/>
		<path id="Caminho_13" class="st15" d="M12.15,257.81c-0.15-8.8,0.56-17.59,2.12-26.26c3.03-16.51,9.05-32.33,17.77-46.68
			c7.51-12.42,16.91-23.61,27.85-33.15c2.09-1.96,3.64-4.43,4.51-7.16c0.74-1.94,0.93-4.06,0.53-6.1c-0.63-2.48-2.14-4.65-4.24-6.1
			c-8.31-7.67-15.78-16.2-22.28-25.46c-7.47-10.67-23.52-34.17-25.72-66.83c-0.34-5.03-0.34-10.08,0-15.12l136.58,0.8
			c0.05,7.64-0.57,15.27-1.86,22.81c-2.97,16.07-8.72,31.51-16.97,45.62c-8.31,14.33-18.98,27.15-31.56,37.92
			c-4.15,3.73-4.94,9.94-1.86,14.59c1.58,2.46,3.77,4.48,6.36,5.84c1.89,1.15,5.41,4.83,12.46,12.2
			c7.58,7.92,16.61,22.26,22.54,38.19c4.46,11.99,6.02,21.81,7.96,33.95c1.32,8.32,2.01,15.35,2.39,20.42L12.15,257.81z"/>
		<path id="Caminho_14" class="st16" d="M74.47,132.37c-5.23-9.85-11.9-13.01-19.36-21.22c-3.85-4.26-7.14-8.98-9.81-14.06
			c-0.13-1.49,0.25-2.99,1.06-4.24c1.05-1.36,2.56-2.3,4.24-2.65c8.45-2.28,28.45-1.62,29.44-1.59c9.02,0.29,8.6-0.18,15.65,0.27
			c6.05,0.38,12.07,1.09,18.04,2.12c1.13,1.02,1.8,2.46,1.86,3.98c0.02,1.36-0.45,2.68-1.33,3.71c-5.59,8.09-11.7,15.79-18.3,23.07
			c-1.83,2.01-3.65,3.95-5.46,5.8c-3.98,4.07-6.25,9.52-6.32,15.22c-0.23,19.96-0.46,39.91-0.69,59.86
			c0.71,1.64,1.33,3.33,1.86,5.04c1.47,4.8,1.39,7.17,3.45,9.02c0.92,0.78,2.01,1.32,3.18,1.59c6.51,1.83,13.56,0.91,20.16,0.8
			c7.26-0.13,11.09-0.14,15.38,2.12c3.33,1.66,6.03,4.36,7.69,7.69c0.55,1.17,3.34,7.49,0.27,11.4c-1.06,1.23-2.44,2.15-3.98,2.65
			c-1.78,0.63-3.7,0.82-5.57,0.53c-4.13-0.54-39.63-0.65-92.29-0.53c-5.6-0.43-7.14-0.4-9.08-2.82c-1.32-1.64-0.9-2.76-0.9-4.08
			c-0.09-2.42,0.52-4.82,1.76-6.9c1.54-2.77,3.02-5.45,5.83-7.43c1.62-1.14,3.7-2.05,9.81-2.65c5.28-0.52,10.64-0.51,20.95-0.27
			c5.27,0.13,7.73,0.21,9.81-1.59c2.49-2.16,2.75-5.6,2.92-7.69c0.23-2.95,2.25-6.05,1.86-22.28s-0.04-29.62,0.27-40.84
			c0.03-1.11,0.06-2.16,0.09-3.12c0.14-3.77-0.7-7.51-2.44-10.86L74.47,132.37z"/>
		<path id="Retângulo_17-2" class="st6" d="M6.18,19.66h148.65l0,0v7.42c0,1.03-0.83,1.86-1.86,1.86H8.04
			c-1.03,0-1.86-0.83-1.86-1.86V19.66L6.18,19.66z"/>
		<path id="Retângulo_18-2" class="st7" d="M6.18,263.35h148.65l0,0v11.96c0,1.03-0.83,1.86-1.86,1.86H8.04
			c-1.03,0-1.86-0.83-1.86-1.86c0,0,0,0,0,0V263.35L6.18,263.35z"/>
		<path id="Retângulo_19-2" class="st6" d="M8.04,254.07h144.93c1.03,0,1.86,0.83,1.86,1.86v7.42l0,0H6.18l0,0v-7.42
			C6.18,254.9,7.02,254.07,8.04,254.07C8.04,254.07,8.04,254.07,8.04,254.07z"/>
	</g>
	<circle id="Elipse_8" class="st12" cx="782.46" cy="485.18" r="10.92"/>
	<path id="Caminho_15" class="st17" d="M617.79,212.68c2.8,5.32,6.02,10.4,9.62,15.21c5.73,7.62,8.53,9.3,10.84,10.19
		c1.78,0.69,7.02,2.73,11.27-0.08s6.21-9.55,3.28-13.92c-3.28-4.89-11.05-4.35-15.29-1.65c-6.67,4.25-5.81,14.6-5.51,18.19
		c0.99,11.96,9.03,19.9,12.18,22.7"/>
</g>
</svg>
