<svg id="Layer_1" data-name="Layer 1" xmlns="http://www.w3.org/2000/svg" viewBox="0 0 139.07 48.48">
  <defs>
    <style>.cls-1{fill:#fff;}.cls-2{fill:#1E3A4B;}</style>
  </defs>
  <title>Rent</title>
  <path class="cls-1" d="M910.12,454.66a44.34,44.34,0,0,0,12.32-2.18c8.34-4.26,21.13-7.87,21.13-7.87,30.5-9,53.14,2.66,57.31,5s15.73,1.23,15.73,1.23A44.24,44.24,0,0,1,1049.2,467H1023c-.76-2.52-8-8.66-8-8.66,4.36-.18,12.88,4,12.88,4a18.82,18.82,0,0,0,11.75,1.71,17.54,17.54,0,0,1-6.44-2.27c-7.58-5.5-25.2-7.77-37-4.93s-27.47,2.84-27.47,2.84c-18.38.57-22-10.23-22-10.23,9.09,8.72,25,7.77,31.07,7.2s18.38-4.55,18.38-4.55c-29.94-16.86-67.26,0-67.26,0a28.41,28.41,0,0,1-13.65,4.17l2.09,2.46c1.7,2.66,6.25.95,6.25.95,13.83-8.9,27.66-.95,27.66-.95A68.07,68.07,0,0,0,976,466.87c-13.27.93-19-2.83-19-2.83-27.29-13.26-34.86,2.83-34.86,2.83h-5.69c.29-6.24-5.78-11.36-5.78-11.36Z" transform="translate(-910.12 -441.24)" />
  <path class="cls-2" d="M925.8,467s4.55-7.34,14.83-6.07A16.52,16.52,0,0,1,951.05,467s-7.68-3.95-13-3.68C932.62,463.61,928.5,464.83,925.8,467Z" transform="translate(-910.12 -441.24)" />
  <path class="cls-2" d="M995.53,467a14.51,14.51,0,0,1,14.59-6.67s6,.13,10.66,6.67c0,0-7.68-3.95-13-3.68S998.23,464.83,995.53,467Z" transform="translate(-910.12 -441.24)" />
  <path class="cls-1" d="M916.15,471.29h6.23c4.27,0,6.8,2.18,6.8,5.57a4.6,4.6,0,0,1-3.26,4.48l3.83,8H924l-2.44-7v7h-5.42Zm5.42,8a1.86,1.86,0,0,0,2.12-2.15c0-1.44-.66-2.15-1.91-2.15h-.21Z" transform="translate(-910.12 -441.24)" />
  <path class="cls-1" d="M931,471.29h9.63v4.38h-4.19V478h3.78v4.23h-3.78v2.49h4.19v4.66H931Z" transform="translate(-910.12 -441.24)" />
  <path class="cls-1" d="M942.49,471.29h5.38l3,9.5v-9.5h4.92v18.06h-5.33l-3-9.05v9.05h-5Z" transform="translate(-910.12 -441.24)" />
  <path class="cls-1" d="M960.22,489.35V475.87H957v-4.58h11.86v4.58h-3.21v13.48Z" transform="translate(-910.12 -441.24)" />
  <path class="cls-2" d="M980.27,488.38a8.81,8.81,0,0,1-4.73,1.35c-3.57,0-5.72-2.11-5.72-5.25,0-2.07,1.15-3.82,3.46-5.59a5.86,5.86,0,0,1-1.52-3.7c0-2.43,2.23-4.2,5.46-4.2,3,0,5.06,1.82,5.06,4.15,0,1.52-.95,2.89-2.88,4.25l2,2.71a7.76,7.76,0,0,0,1.49-1.72l2.45,3.5a13.72,13.72,0,0,1-1.5,1.67l2.7,3.8h-5.63ZM974.53,484a1.48,1.48,0,0,0,1.5,1.42,2.44,2.44,0,0,0,1.46-.61l-1.9-2.55A2.61,2.61,0,0,0,974.53,484Zm3.81-8.91a.94.94,0,0,0-.93-1,1,1,0,0,0-1,1,2.76,2.76,0,0,0,.87,1.67C977.93,476.13,978.34,475.7,978.34,475.09Z" transform="translate(-910.12 -441.24)" />
  <path class="cls-1" d="M991.45,471.29c3.15,0,5.27.28,7.21,2.2,1.38,1.42,2.14,3.73,2.14,6.84,0,6-2.77,9-8.15,9h-5.23V471.29Zm1.39,13.5h.24c1.8,0,2.26-1.42,2.26-4.56s-.44-4.61-2.31-4.61h-.19Z" transform="translate(-910.12 -441.24)" />
  <path class="cls-1" d="M1002.3,471.29h6.23c4.27,0,6.8,2.18,6.8,5.57a4.6,4.6,0,0,1-3.26,4.48l3.83,8h-5.74l-2.44-7v7h-5.42Zm5.42,8a1.86,1.86,0,0,0,2.12-2.15c0-1.44-.66-2.15-1.91-2.15h-.21Z" transform="translate(-910.12 -441.24)" />
  <path class="cls-1" d="M1017.29,471.29h5.41v18.06h-5.41Z" transform="translate(-910.12 -441.24)" />
  <path class="cls-1" d="M1029.23,471.29l2,11.8,2-11.8h5.39l-4.43,18.06h-6l-4.43-18.06Z" transform="translate(-910.12 -441.24)" />
  <path class="cls-1" d="M1039.57,471.29h9.63v4.38H1045V478h3.78v4.23H1045v2.49h4.19v4.66h-9.63Z" transform="translate(-910.12 -441.24)" />
</svg>