<?xml version="1.0" encoding="utf-8"?>
<!-- Generator: Adobe Illustrator 23.0.3, SVG Export Plug-In . SVG Version: 6.00 Build 0)  -->
<svg version="1.1" xmlns="http://www.w3.org/2000/svg" xmlns:xlink="http://www.w3.org/1999/xlink" x="0px" y="0px"
	 viewBox="0 0 750 500" style="enable-background:new 0 0 750 500;" xml:space="preserve">
<style type="text/css">
	.st0{fill:#EBEBEB;}
	.st1{fill:#E0E0E0;}
	.st2{fill:#F5F5F5;}
	.st3{display:none;}
	.st4{display:inline;fill:#E0E0E0;}
	.st5{fill:#263238;}
	.st6{fill:#455A64;}
	.st7{fill:#FAFAFA;}
	.st8{fill:#F70403;}
	.st9{fill:#E8505B;}
	.st10{opacity:0.5;}
	.st11{fill:#F27121;}
	.st12{opacity:0.4;}
	.st13{fill:#FFFFFF;}
	.st14{fill:none;stroke:#4E585D;stroke-width:5.000000e-02;stroke-miterlimit:10;}
	.st15{opacity:0.2;}
	.st16{fill:#B78876;}
	.st17{fill:#AA6550;}
	.st18{opacity:0.3;}
	.st19{fill:#1E3A4B;}
</style>
<g id="Background_Complete">
	<g>
		<g>
			<g>
				<path class="st0" d="M64.7,178.7c-2.5,2.6-3.6,6.4-3.5,10c0.2,3.6,1.5,7.1,3.2,10.3c3.4,6.2,9.8,11.2,15.9,14.8
					c3.5-7,1.3-15.8,0-20.2C78.1,186.6,70,175.3,64.7,178.7"/>
			</g>
		</g>
		<g>
			<g>
				<path class="st0" d="M78.4,227.1c-0.6-4-3.8-7.4-7.6-8.8c-3.8-1.3-8.2-0.8-11.8,1c-1.7,0.8-3.3,2.1-3.8,4
					c-0.4,1.7,0.5,3.5,1.8,4.7c1.3,1.1,3.1,1.7,4.8,2C67.7,231,73.7,230.9,78.4,227.1"/>
			</g>
		</g>
		<g>
			<g>
				<g>
					<path class="st1" d="M93.5,244.1c0,0-0.2-0.5-0.7-1.2c-0.6-0.9-1.3-2-2.1-3.3c-1.8-2.8-4.4-6.7-8.4-10c-4-3.2-8.5-5-11.9-5.4
						c-1.7-0.2-3-0.2-4-0.1c-0.5,0-0.8,0.1-1.1,0.2c-0.2,0-0.4,0.1-0.4,0.1c0,0.1,2.1-0.3,5.4,0.2c3.3,0.5,7.6,2.3,11.6,5.4
						c4,3.2,6.5,7.1,8.5,9.8c0.9,1.4,1.7,2.5,2.3,3.2C93.2,243.7,93.5,244.1,93.5,244.1z"/>
				</g>
			</g>
		</g>
		<g>
			<g>
				<g>
					<path class="st1" d="M70.2,187.8c0,0,0,0.2,0.2,0.6c0.2,0.4,0.3,1,0.6,1.7c0.5,1.5,1.3,3.6,2.3,6.2c2,5.3,4.8,12.5,8.1,20.4
						c3.3,7.9,6.4,15,8.8,20.1c1.2,2.6,2.1,4.6,2.8,6c0.3,0.7,0.6,1.2,0.8,1.6c0.2,0.4,0.3,0.6,0.3,0.6c0,0-0.1-0.2-0.2-0.6
						c-0.2-0.4-0.4-1-0.7-1.7c-0.7-1.5-1.6-3.6-2.7-6.1c-2.3-5.1-5.3-12.3-8.6-20.2c-3.3-7.9-6.2-15.1-8.2-20.3
						c-1-2.6-1.8-4.7-2.4-6.2c-0.3-0.7-0.5-1.2-0.7-1.7C70.3,188,70.2,187.8,70.2,187.8z"/>
				</g>
			</g>
		</g>
		<g>
			<g>
				<path class="st0" d="M89.4,227.2c-2-8.3,0.4-17.6,6.1-24c1.5-1.6,3.6-3.2,5.7-2.4c2.1,0.7,2.7,3.3,2.8,5.5
					c0.2,9.1-5.8,18-14.2,21.4"/>
			</g>
		</g>
		<g>
			<g>
				<g>
					<path class="st1" d="M97.2,209.7c0,0-0.4,0.3-1,1c-0.3,0.3-0.7,0.7-1,1.2c-0.4,0.5-0.8,1.1-1.2,1.7c-0.4,0.7-0.9,1.4-1.3,2.2
						c-0.5,0.8-0.9,1.7-1.3,2.7c-0.8,1.9-1.4,4.1-1.8,6.5c-0.3,2.4-0.4,4.7-0.2,6.8c0.1,1,0.2,2,0.5,2.9c0.2,0.9,0.4,1.7,0.6,2.5
						c0.2,0.8,0.5,1.4,0.7,2c0.2,0.6,0.5,1.1,0.7,1.5c0.4,0.8,0.6,1.2,0.7,1.2c0.1,0-0.8-1.8-1.7-4.8c-0.2-0.8-0.4-1.6-0.6-2.5
						c-0.2-0.9-0.3-1.9-0.4-2.9c-0.2-2-0.1-4.3,0.2-6.7c0.4-2.3,1-4.5,1.8-6.4c0.4-0.9,0.8-1.9,1.2-2.7c0.4-0.8,0.8-1.5,1.2-2.2
						C96,211.2,97.3,209.8,97.2,209.7z"/>
				</g>
			</g>
		</g>
	</g>
	<g>
		<g>
			<g>
				<path class="st0" d="M686.1,116.3c0,0,9.2,3,0.3,22.7c-8.9,19.7-15.3,29.6-15.3,29.6s-1.5,4.6,2.3,5.1c3.8,0.5,12-1.2,13.9,3.3
					c2,4.7-1.3,9.4-8.1,13.7c-6.9,4.3-21.5,14.2-22.8,15.1c-1.3,0.9-2.5,3,0,3.8c2.5,0.8,21.3,1.8,20.2,10.7
					c-1,8.9-22.1,17.7-24.4,18.7c-2.3,1-2.8,2-2.5,3.3c0.2,1.3,6.6,1,11.9,1.6c5.3,0.5,11.4,2.1,10.4,7.1
					c-1,5.1-13.2,16.2-43.9,20.6l-14.3,1.1l-8.4-11.8c-16.4-26.3-15.8-42.8-12.6-46.8c3.2-4.1,8.3-0.4,12.1,3.3
					c3.8,3.7,7.8,8.7,8.9,8.1c1.1-0.6,1.6-1.7,0.9-4.1c-0.7-2.4-7.6-24.1-1.5-30.7c6.1-6.5,19,7.1,21.2,8.5c2.2,1.4,3.1-0.9,2.9-2.5
					c-0.2-1.6-2.1-19.2-3.2-27.2c-1.2-8,0.3-13.5,5.1-15c4.7-1.5,8.7,5.9,11.5,8.5c2.9,2.6,5.3-1.6,5.3-1.6s3.4-11.2,12.7-30.8
					c9.3-19.6,17.7-14.3,17.7-14.3"/>
			</g>
		</g>
		<g>
			<g>
				<g>
					<path class="st1" d="M613.1,276.1c6.8-14.4,18.3-40.2,28.4-62.3c10.1-22.1,19.2-42.1,25.9-56.5c3.3-7.2,6.1-13,7.9-17.1
						c0.9-2,1.7-3.6,2.2-4.6c0.2-0.5,0.4-0.9,0.6-1.2c0.1-0.3,0.2-0.4,0.2-0.4s-0.1,0.1-0.2,0.4c-0.1,0.3-0.3,0.7-0.6,1.2
						c-0.5,1.1-1.3,2.6-2.2,4.6c-1.9,4-4.7,9.8-8.1,17c-6.8,14.4-15.9,34.4-26,56.4c-10.1,22.1-21.6,47.9-28.3,62.3"/>
				</g>
			</g>
		</g>
		<g>
			<g>
				<g>
					<path class="st1" d="M675.9,179.9c0,0-0.4,0.1-1,0.3c-0.6,0.2-1.5,0.6-2.6,1.1c-2.2,0.9-5.2,2.3-8.5,3.8c-3.2,1.5-6.2,3-8.4,4
						c-1,0.5-1.9,0.9-2.6,1.2c-0.6,0.3-0.9,0.5-0.9,0.5c0,0,0.4-0.1,1-0.3c0.6-0.2,1.5-0.6,2.6-1.1c2.2-0.9,5.2-2.3,8.5-3.9
						c3.3-1.5,6.2-2.9,8.4-4c1-0.5,1.9-0.9,2.6-1.2C675.6,180.1,675.9,179.9,675.9,179.9z"/>
				</g>
			</g>
		</g>
		<g>
			<g>
				<g>
					<path class="st1" d="M650.8,190c0.1,0-2.4-6.4-5.6-14.1c-3.2-7.8-5.9-14-6.1-14c-0.1,0,2.4,6.4,5.6,14.1
						C648,183.7,650.7,190,650.8,190z"/>
				</g>
			</g>
		</g>
		<g>
			<g>
				<g>
					<path class="st1" d="M636.9,224.6c0,0-0.2-0.3-0.6-0.9c-0.5-0.6-1.1-1.4-1.8-2.2c-1.5-1.9-3.6-4.5-5.8-7.5
						c-2.2-3-4.1-5.8-5.5-7.8c-0.6-0.9-1.2-1.7-1.6-2.4c-0.4-0.6-0.6-0.9-0.6-0.8c0,0,0.1,0.4,0.5,0.9c0.3,0.6,0.9,1.4,1.5,2.5
						c1.3,2.1,3.2,4.9,5.4,7.9c2.2,3,4.4,5.6,5.9,7.5c0.8,0.9,1.5,1.7,1.9,2.2C636.6,224.3,636.9,224.6,636.9,224.6z"/>
				</g>
			</g>
		</g>
		<g>
			<g>
				<g>
					<path class="st1" d="M661.6,220.4c0,0-0.4,0-1,0.1c-0.7,0.1-1.6,0.2-2.6,0.3c-2.2,0.3-5.3,0.8-8.7,1.3c-3.4,0.5-6.5,1-8.7,1.4
						c-1,0.2-1.9,0.3-2.6,0.5c-0.6,0.1-1,0.2-1,0.2c0,0,0.4,0,1-0.1c0.7-0.1,1.6-0.2,2.6-0.3c2.2-0.3,5.3-0.8,8.7-1.3
						c3.4-0.5,6.5-1,8.7-1.4c1-0.2,1.9-0.3,2.6-0.5C661.2,220.5,661.6,220.5,661.6,220.4z"/>
				</g>
			</g>
		</g>
		<g>
			<g>
				<g>
					<path class="st1" d="M653.2,252.5c0,0-0.5,0-1.3,0.1c-0.9,0.1-2,0.2-3.4,0.4c-2.9,0.4-6.8,0.9-11.2,1.5
						c-4.4,0.6-8.3,1.2-11.2,1.7c-1.4,0.2-2.5,0.4-3.4,0.6c-0.8,0.1-1.2,0.2-1.2,0.3c0,0,0.5,0,1.3-0.1c0.9-0.1,2-0.2,3.4-0.4
						c2.9-0.4,6.8-0.9,11.2-1.5c4.4-0.6,8.3-1.2,11.2-1.7c1.4-0.2,2.5-0.4,3.4-0.6C652.7,252.7,653.2,252.6,653.2,252.5z"/>
				</g>
			</g>
		</g>
		<g>
			<g>
				<g>
					<path class="st1" d="M622.3,256.8c0,0-0.2-0.4-0.8-1.1c-0.6-0.8-1.3-1.7-2.2-2.9c-1.8-2.5-4.4-5.9-7.1-9.8
						c-2.7-3.9-5.1-7.4-6.7-10c-0.8-1.2-1.5-2.3-2-3.1c-0.5-0.7-0.8-1.1-0.8-1.1c0,0,0.2,0.4,0.6,1.2c0.4,0.8,1.1,1.8,1.9,3.1
						c1.6,2.6,3.9,6.2,6.6,10.1c2.7,3.9,5.3,7.3,7.2,9.7c1,1.2,1.7,2.2,2.3,2.8C622,256.4,622.3,256.8,622.3,256.8z"/>
				</g>
			</g>
		</g>
	</g>
	<g>
		<g>
			<g>
				<g>
					<g>
						<path class="st2" d="M388.7,234.6c25.6-12.9,35.3-42.3,38.3-69.6c0.5-4.5,1.7-9.3,0.1-13.5c-1.6-4.3-6.2-7.7-10.5-6.4
							c-3.6,1.1-5.6,4.8-8,7.8c-3.1,3.9-7.4,7-12.1,8.6c-3.1,1.1-6.8,1.5-9.4-0.5c-3.6-2.7-3.3-8.2-2.6-12.7
							c1.3-8.4,2.5-16.8,3.8-25.2c0.7-4.5,1.4-9.1,0.6-13.6c-0.8-4.5-3.3-8.9-7.4-10.7c-4.1-1.8-9.8-0.1-11.3,4.2
							c-0.6,1.8-0.5,3.7-0.9,5.6c-0.4,1.9-1.6,3.8-3.4,4.1c-1.9,0.3-3.5-1.3-4.6-2.8c-4-5.2-6.3-11.5-8.4-17.8
							c-2.1-6.3-4.1-12.6-7.6-18.2c-3.5-5.6-8.8-10.3-15.2-11.6c-6.4-1.3-13.8,1.7-16.4,7.8c-2.6,6.1,0.2,13.1,3.5,18.8
							c4.9,8.5,11,16.3,18,23c1.3,1.2,2.7,2.5,3,4.3c0.5,3.1-2.7,5.7-5.8,6.3c-3.5,0.6-7.1-0.2-10.7-0.3c-3.6-0.1-7.6,0.9-9.4,4
							c-2.5,4.3,0.6,9.7,4,13.4c6.7,7.4,14.6,13.7,23.4,18.4c3.1,1.7,6.5,3.3,8.8,6c2.3,2.7,3.4,7,1.3,9.9c-2.1,2.9-6.4,3.4-9.7,2.2
							c-3.4-1.1-6.2-3.5-9.3-5.2c-5.9-3.2-13.9-4-18.6,0.8c-3.1,3.1-4.1,8-3.3,12.4c0.7,4.4,2.9,8.4,5.2,12.1
							c8.2,13.1,19.6,24.3,33.2,31.3C360.6,234.5,373.7,237.8,388.7,234.6"/>
					</g>
				</g>
			</g>
		</g>
		<g>
			<g>
				<g>
					<g>
						<g>
							<path class="st1" d="M384.2,216.6c-2-14.3-5.5-29.7-9.7-45.8c-1.1-4-2.1-8-3.2-11.9c-1-3.9-2.1-7.8-3.3-11.5
								c-2.5-7.4-5.4-14.4-8.4-20.9c-3-6.5-6.1-12.6-9-18.3c-2.9-5.7-5.8-10.9-8.6-15.5c-5.5-9.3-10.9-16.3-14.8-21
								c-1.9-2.3-3.5-4.1-4.6-5.3c-0.5-0.6-0.9-1-1.2-1.3c-0.3-0.3-0.4-0.4-0.4-0.4c0,0,0.1,0.2,0.4,0.5c0.3,0.3,0.7,0.8,1.2,1.4
								c1,1.2,2.5,3,4.4,5.4c3.8,4.7,9.1,11.7,14.5,21.1c2.7,4.7,5.5,9.9,8.4,15.6c2.9,5.7,5.9,11.8,8.9,18.3
								c3,6.5,5.9,13.5,8.3,20.9c1.2,3.7,2.3,7.5,3.3,11.4c1,3.9,2.1,7.9,3.2,11.9c4.2,16,7.7,31.4,9.8,45.7"/>
						</g>
					</g>
				</g>
			</g>
		</g>
		<g>
			<g>
				<g>
					<g>
						<g>
							<path class="st1" d="M367.7,147.5c0.1,0,0.3-0.6,0.7-1.9c0.4-1.2,1-3,1.6-5.2c1.3-4.4,2.9-10.5,4.6-17.3
								c1.7-6.8,3.4-12.8,4.7-17.2c0.7-2.2,1.2-3.9,1.6-5.2c0.4-1.2,0.6-1.9,0.5-1.9c-0.1,0-0.3,0.6-0.8,1.8
								c-0.5,1.2-1.1,2.9-1.9,5.1c-1.5,4.3-3.2,10.4-5,17.2c-1.7,6.7-3.2,12.7-4.3,17.3c-0.5,2.1-1,3.8-1.3,5.2
								C367.8,146.8,367.6,147.5,367.7,147.5z"/>
						</g>
					</g>
				</g>
			</g>
		</g>
		<g>
			<g>
				<g>
					<g>
						<g>
							<path class="st1" d="M311.3,128.3c0,0.1,0.8,0.3,2.3,0.6c1.5,0.3,3.6,0.8,6.2,1.5c5.2,1.3,12.4,3.4,20.1,6.1
								c7.8,2.7,14.7,5.4,19.7,7.5c2.5,1,4.5,1.9,5.9,2.5c1.4,0.6,2.2,0.9,2.2,0.9c0-0.1-0.7-0.5-2-1.2c-1.3-0.7-3.3-1.7-5.8-2.8
								c-4.9-2.3-11.8-5.1-19.6-7.8c-7.8-2.7-15-4.7-20.3-5.9c-2.6-0.6-4.8-1-6.3-1.3C312.2,128.3,311.4,128.2,311.3,128.3z"/>
						</g>
					</g>
				</g>
			</g>
		</g>
		<g>
			<g>
				<g>
					<g>
						<g>
							<path class="st1" d="M383.6,215.5c0,0,0.2-0.2,0.5-0.6c0.3-0.5,0.8-1.2,1.3-2c1.1-1.7,2.7-4.2,4.5-7.3
								c3.8-6.2,8.7-15,14-24.7c5.3-9.8,10.1-18.6,13.7-24.9c1.8-3.1,3.2-5.6,4.3-7.4c0.5-0.8,0.8-1.5,1.2-2
								c0.3-0.5,0.4-0.7,0.4-0.7c0,0-0.2,0.2-0.5,0.7c-0.3,0.5-0.8,1.2-1.3,1.9c-1.1,1.7-2.7,4.2-4.5,7.3c-3.8,6.2-8.7,15-14,24.7
								c-5.3,9.7-10.1,18.5-13.7,24.8c-1.8,3.1-3.2,5.6-4.3,7.4c-0.5,0.8-0.8,1.5-1.2,2C383.7,215.2,383.6,215.4,383.6,215.5z"/>
						</g>
					</g>
				</g>
			</g>
		</g>
		<g>
			<g>
				<g>
					<g>
						<g>
							<path class="st1" d="M310.2,179.5c0,0,0.2,0.2,0.7,0.4c0.6,0.3,1.3,0.6,2.1,1.1c2,1,4.6,2.3,7.9,3.9
								c6.6,3.3,15.7,7.9,25.8,13c10.1,5.1,19.2,9.6,25.9,12.8c3.3,1.6,6.1,2.8,8,3.6c0.9,0.4,1.6,0.7,2.2,0.9
								c0.5,0.2,0.8,0.3,0.8,0.3c0,0-0.2-0.2-0.7-0.4c-0.6-0.3-1.3-0.6-2.1-1.1c-2-1-4.6-2.3-7.9-3.9c-6.6-3.3-15.7-7.9-25.8-13
								c-10.1-5.1-19.2-9.6-25.9-12.8c-3.3-1.6-6.1-2.8-8-3.6c-0.9-0.4-1.6-0.7-2.2-0.9C310.5,179.6,310.3,179.5,310.2,179.5z"/>
						</g>
					</g>
				</g>
			</g>
		</g>
	</g>
	<g>
		<path class="st2" d="M187.4,128.1l13.3,34.7c1.9,5,9,5,10.9,0l13.6-34.5c4-8.1,5.9-17.8,1.5-26.3c-2-3.8-5.2-7-9.2-8.8
			c-17.5-8.2-34.6,2.2-34.6,18.5C182.9,111.6,182.8,117.5,187.4,128.1z M195.6,121.9c-6.4-12.5,5.5-25.1,17.2-18.3
			c1.6,0.9,2.9,2.3,3.7,4c6.4,12.5-5.5,25.1-17.2,18.3C197.8,124.9,196.5,123.5,195.6,121.9z"/>
	</g>
</g>
<g id="Background_Simple" class="st3">
	<path class="st4" d="M636.4,230.3c11.5-43,0.9-91.3-27.5-125.6s-74-53.6-118.4-50.2c-44.4,3.4-86.5,29.4-109.4,67.6
		c-7.7,12.9-13.6,27.3-24.6,37.6c-14.9,13.8-36.7,17.5-57,17c-20.3-0.5-40.6-4.4-60.9-3.1c-36,2.3-70.8,22.4-89.3,53.4
		c-18.5,31-19.3,72.1-0.6,103c15.3,25.3,42,42.3,70.2,51.3c28.2,9,58.2,10.8,87.8,11.6c65.6,1.7,132.7-1.7,193.9-25.5
		c61.1-23.8,116-71,135.3-133.7"/>
	<path class="st4" d="M112.2,51.9c9-17,27-28.7,47.7-26.5c8.8-0.5,24.8,5.3,35,16.8c10.2,11.5,14.4,28.4,10.4,43.3
		c-5,18.6-15.8,31.9-34.5,36.7c-18.6,4.9-39.9-1.5-52.3-16.2S103.2,68.9,112.2,51.9z"/>
</g>
<g id="Floor">
	<g>
		<g>
			<path class="st5" d="M41.2,444.1c0,0.1,150,0.3,334.9,0.3c185,0,335-0.1,335-0.3s-149.9-0.3-335-0.3
				C191.2,443.8,41.2,443.9,41.2,444.1z"/>
		</g>
	</g>
</g>
<g id="Device">
	<g>
		<g>
			<g>
				<g>
					<g>
						<g>
							<g>
								<path class="st6" d="M427,444.1l132.9-0.6c16-0.1,28.9-13.1,28.8-29.1l-1.4-333.2c-0.1-16-13.1-28.9-29.1-28.8l-132.9,0.6
									C409.3,53,396.4,66,396.5,82l1.4,333.2C398,431.2,411,444.2,427,444.1z"/>
							</g>
						</g>
						<g>
							<g>
								<path class="st7" d="M425.5,64.4l25.8-0.1c3.5,0,6.3,2.9,6.3,6.5l0,4.7c0,3.6,2.8,6.5,6.3,6.5l50.2-0.2c3.5,0,6.2-3,6.2-6.6
									l0-4.7c0-3.6,2.8-6.6,6.2-6.6l9.1,0l22.6-0.1c11.2-0.1,20.3,9,20.4,20.2l1.4,325.3c0,11.2-9,20.3-20.2,20.4l-132.7,0.6
									c-11.2,0.1-20.3-9-20.4-20.2l-1.4-325.3C405.3,73.6,414.3,64.5,425.5,64.4z"/>
							</g>
						</g>
					</g>
				</g>
			</g>
		</g>
		<g>
			<polygon class="st0" points="578.7,123.1 557,123.1 537.6,142.5 557.7,162.6 578.5,141.9 			"/>
		</g>
		<g>
			<polygon class="st0" points="533.1,133.9 544,123.1 519.5,123.1 			"/>
		</g>
		<g>
			<path class="st0" d="M523.6,142.8l-19.1-19.1h-66.7c0,0-10.2,45.6,30,74.9L523.6,142.8z"/>
		</g>
		<g>
			<polygon class="st0" points="531.8,148.9 552.2,169.4 495.7,225.9 475.3,204.8 			"/>
		</g>
		<g>
			<polygon class="st0" points="579,180.9 566.2,167.6 578.7,155.1 			"/>
		</g>
		<g>
			<polygon class="st0" points="558.5,175.5 578.2,195.1 578.2,222.5 537.6,264 503.2,232 			"/>
		</g>
		<g>
			<path class="st0" d="M460.2,204.4c0,0-42.1-30.9-28.5-80.6h-26.2l0.3,140.4L460.2,204.4z"/>
		</g>
		<g>
			<polygon class="st0" points="468.1,212.5 488.5,233.7 426,296.2 406.9,275.9 			"/>
		</g>
		<g>
			<polygon class="st0" points="497,239.5 529,271.3 464.9,334.9 433,304 			"/>
		</g>
		<g>
			<polygon class="st0" points="513.7,398.8 464.8,348 418.3,395.5 			"/>
		</g>
		<g>
			<path class="st0" d="M457.2,341.5l-51-50.5c0,2.2,0.4,104.7,0.4,104.7L457.2,341.5z"/>
		</g>
		<g>
			<polygon class="st0" points="500.8,313.1 471.9,342 529,401 555.3,369.3 			"/>
		</g>
		<g>
			<path class="st0" d="M578.9,373.4c-2.7-0.3-72.6-65.7-72.6-65.7l72.6-75.3V373.4z"/>
		</g>
		<g>
			<polyline class="st0" points="579.9,388.3 563.1,373.4 539.8,401 579.9,401 579.9,390.4 			"/>
		</g>
		<g>
			<g>
				<g>
					<path class="st5" d="M558.1,103.2c0.1,0.1,2.3-1.8,5-4.3l0,0c0-0.8,0-0.2,0-0.4l0,0l0,0l0,0l0,0l-0.1-0.1l-0.1-0.1l-0.2-0.2
						c-0.2-0.2-0.3-0.3-0.5-0.4c-0.3-0.3-0.6-0.6-0.9-0.8c-0.5-0.5-1.1-1-1.6-1.4c-0.9-0.8-1.5-1.2-1.5-1.2c0,0.1,0.4,0.6,1.3,1.5
						c0.5,0.5,1,1,1.5,1.5c0.3,0.3,0.6,0.6,0.9,0.9c0.2,0.1,0.3,0.3,0.5,0.5l0.2,0.2l0.1,0.1l0.1,0.1l0,0l0,0l0,0l0,0
						c0-0.2,0,0.4,0-0.4l0,0C560.1,101,558,103.1,558.1,103.2z"/>
				</g>
			</g>
			<g>
				<g>
					<path class="st5" d="M419.9,95.6c0,0.6,0.5,1.1,1.1,1.1s1.1-0.5,1.1-1.1c0-0.6-0.5-1.1-1.1-1.1S419.9,95,419.9,95.6z"/>
				</g>
				<g>
					<path class="st5" d="M420.2,98.6c-0.4,0.4-0.4,1.1,0,1.5c0.4,0.4,1.1,0.4,1.5,0c0.4-0.4,0.4-1.1,0-1.5
						C421.3,98.1,420.7,98.1,420.2,98.6z"/>
				</g>
				<g>
					<path class="st5" d="M419.9,103.1c0,0.6,0.5,1.1,1.1,1.1s1.1-0.5,1.1-1.1c0-0.6-0.5-1.1-1.1-1.1S419.9,102.5,419.9,103.1z"/>
				</g>
			</g>
		</g>
		<g>
			
				<rect x="466.8" y="100" transform="matrix(-1 -4.489532e-11 4.489532e-11 -1 980.3437 203.9648)" class="st5" width="46.8" height="3.9"/>
		</g>
		<g>
			<path class="st8" d="M476.8,188.4l14.9,38.7c2.1,5.6,10,5.6,12.2,0.1l15.2-38.5c4.5-9,6.6-19.9,1.7-29.4
				c-2.2-4.3-5.9-7.8-10.3-9.8c-19.5-9.1-38.7,2.4-38.7,20.6C471.9,170,471.6,176.6,476.8,188.4z M486,181.5
				c-7.2-13.9,6.1-28,19.2-20.4c1.7,1,3.2,2.6,4.2,4.4c7.2,13.9-6.1,28-19.2,20.4C488.5,184.9,487,183.3,486,181.5z"/>
		</g>
	</g>
</g>
<g id="Car">
	<g>
		<g>
			<g>
				<g>
					<g>
						
							<rect x="74.1" y="309.1" transform="matrix(-1 -4.489621e-11 4.489621e-11 -1 703.0182 699.6443)" class="st9" width="554.8" height="81.4"/>
					</g>
				</g>
				<g class="st10">
					<g>
						
							<rect x="74.1" y="309.1" transform="matrix(-1 -4.489621e-11 4.489621e-11 -1 703.0182 699.6443)" width="554.8" height="81.4"/>
					</g>
				</g>
			</g>
			<g>
				<g>
					<g>
						<g>
							<g>
								<g>
									<g>
										
											<ellipse transform="matrix(6.712751e-02 -0.9977 0.9977 6.712751e-02 128.0487 916.9212)" class="st5" cx="554.4" cy="390" rx="53.5" ry="53.5"/>
									</g>
								</g>
							</g>
						</g>
					</g>
				</g>
				<g>
					<g>
						<g>
							<g>
								<g>
									<g>
										<path class="st5" d="M607.8,389.1c0,0,0,0.1,0,0.1c0.4,29.5-23.2,53.8-52.7,54.3c-29.5,0.4-53.8-23.2-54.3-52.7
											c0,0,0-0.1,0-0.1L607.8,389.1z"/>
									</g>
								</g>
							</g>
						</g>
					</g>
				</g>
				<g>
					<g>
						<g>
							<g>
								<g>
									<g>
										<path class="st7" d="M591.9,389.4c0.3,20.7-16.3,37.8-37,38.1c-20.7,0.3-37.8-16.3-38.1-37c-0.3-20.7,16.3-37.8,37-38.1
											C574.6,352.1,591.6,368.7,591.9,389.4z"/>
									</g>
								</g>
							</g>
						</g>
					</g>
				</g>
				<g>
					<g>
						<g>
							<g>
								<g>
									<g>
										<path class="st1" d="M553.8,352.4c20.7-0.3,37.8,16.3,38.1,37l-75.1,1.1C516.5,369.8,533.1,352.7,553.8,352.4z"/>
									</g>
								</g>
							</g>
						</g>
					</g>
				</g>
				<g>
					<g>
						<g>
							<g>
								<g>
									<g>
										<path class="st5" d="M577.2,389.7c0.2,12.6-9.9,23-22.5,23.2c-12.6,0.2-23-9.9-23.2-22.5c-0.2-12.6,9.9-23,22.5-23.2
											C566.7,366.9,577.1,377,577.2,389.7z"/>
									</g>
								</g>
							</g>
						</g>
					</g>
				</g>
			</g>
			<g>
				<g>
					<g>
						<g>
							<g>
								<g>
									<g>
										
											<ellipse transform="matrix(5.782903e-02 -0.9983 0.9983 5.782903e-02 -252.4666 512.4538)" class="st5" cx="145.3" cy="390" rx="53.5" ry="53.5"/>
									</g>
								</g>
							</g>
						</g>
					</g>
				</g>
				<g>
					<g>
						<g>
							<g>
								<g>
									<g>
										<path class="st5" d="M198.7,389.1c0,0,0,0.1,0,0.1c0.4,29.5-23.2,53.8-52.7,54.3c-29.5,0.4-53.8-23.2-54.3-52.7
											c0,0,0-0.1,0-0.1L198.7,389.1z"/>
									</g>
								</g>
							</g>
						</g>
					</g>
				</g>
				<g>
					<g>
						<g>
							<g>
								<g>
									<g>
										<path class="st7" d="M182.8,389.4c0.3,20.7-16.3,37.8-37,38.1c-20.7,0.3-37.8-16.3-38.1-37c-0.3-20.7,16.3-37.8,37-38.1
											C165.5,352.1,182.5,368.7,182.8,389.4z"/>
									</g>
								</g>
							</g>
						</g>
					</g>
				</g>
				<g>
					<g>
						<g>
							<g>
								<g>
									<g>
										<path class="st1" d="M144.7,352.4c20.7-0.3,37.8,16.3,38.1,37l-75.1,1.1C107.4,369.8,124,352.7,144.7,352.4z"/>
									</g>
								</g>
							</g>
						</g>
					</g>
				</g>
				<g>
					<g>
						<g>
							<g>
								<g>
									<g>
										<path class="st5" d="M168.1,389.7c0.2,12.6-9.9,23-22.5,23.2c-12.6,0.2-23-9.9-23.2-22.5c-0.2-12.6,9.9-23,22.5-23.2
											C157.6,366.9,168,377,168.1,389.7z"/>
									</g>
								</g>
							</g>
						</g>
					</g>
				</g>
			</g>
			<g>
				<g>
					<path class="st11" d="M484.2,263.3c0,0,78.8,5.8,108,12.4c20.6,4.6,60.3,12.6,59.8,37.5l-3.1,17.9c0,0,14.7,6.7,14.7,23.9
						c0,17.2,3.6,43.8-30.8,44.8c-5.7,0.2-16.4,0-16.4,0s6.6-73.2-60.6-75.3c-68.4-2.2-63.8,74.6-63.8,74.6H206.5
						c0,0,11.7-74.8-61.9-75c-73.6-0.1-62.4,75.4-62.4,75.4s-27.1,2.3-39.7-20.4c-12.6-22.8-9.3-39-9.3-39l0.4-14.4
						c0.1-4.9,4.1-8.8,9-9l0,0c0,0-4.9-36.2,2.6-42.5s48.9-44.1,48.9-44.1l-2-1.2c-3.3-2.1-2.7-7,1-8.3
						c15.7-5.4,46.8-16.1,54.1-18.6c1.1-0.4,2.2-0.6,3.4-0.7c4.4-0.3,16.7-1.1,39.3-1.4c27.6-0.3,137.1,0,137.1,0
						s37.7,3.1,58.7,12.3C407.8,222.1,484.2,263.3,484.2,263.3z"/>
				</g>
			</g>
			<g class="st12">
				<g>
					<g>
						<path d="M643.6,353c2.9-0.6,7.2-0.6,9.4,1.3c1.6,1.4,2,3.8,2.3,5.9c0.3,3,0.5,6-0.2,8.9c-0.7,2.9-2.4,5.7-5,7.1
							c-2.6,1.4-6.2,1.2-8.2-1c-1.9-2-2.1-5-2-7.7c0.1-3.9-0.2-7.1,0.5-10.9c0.1-0.7,0.5-1.6,1-2.2
							C642.1,353.5,642.7,353.1,643.6,353"/>
					</g>
				</g>
			</g>
			<g>
				<g>
					<path class="st7" d="M648.9,331.1c-8.4,0-16.5-0.5-24.8-1c-0.9-0.1-1.9-0.2-2.5-0.8c-0.8-0.7-0.9-2-0.9-3
						c0-4.5,0.2-9.6,3.6-12.5c2.1-1.8,4.9-2.3,7.7-2.6c6.7-0.6,13.8-0.1,20.1,2L648.9,331.1z"/>
				</g>
			</g>
			<g>
				<g>
					<g>
						<path class="st13" d="M475.2,396.9c0,0,0-0.2,0.1-0.7c0-0.5,0.1-1.2,0.1-2.1c0.1-1.9,0.3-4.6,0.4-8.1
							c0.2-3.5,0.4-7.8,0.9-12.7c0.5-4.9,1.3-10.6,2.9-16.6c1.7-6,4.2-12.5,8.1-18.8c3.8-6.3,8.8-12.5,15.6-17.4
							c13.5-9.6,31.7-15,50.8-15.3c19.1-0.2,37.3,5.8,50.4,15.9c6.6,4.9,12.1,10.7,16.4,16.7c4.3,6,7.4,12.2,9.6,18
							c2.2,5.9,3.4,11.4,4,16.4c0.7,4.9,0.6,9.2,0.5,12.7c-0.3,3.5-0.6,6.2-1,8c-0.2,0.9-0.3,1.6-0.4,2.1c-0.1,0.5-0.1,0.7-0.1,0.7
							s0.1-0.2,0.2-0.7c0.1-0.5,0.2-1.2,0.4-2.1c0.4-1.8,0.8-4.5,1.1-8c0.2-3.5,0.3-7.8-0.4-12.8c-0.6-4.9-1.8-10.6-4-16.5
							c-2.2-5.9-5.3-12.1-9.6-18.2c-4.2-6.1-9.8-11.9-16.4-16.8c-13.2-10.2-31.5-16.2-50.7-16c-19.2,0.2-37.5,5.7-51.1,15.4
							c-6.8,4.9-11.8,11.2-15.7,17.5c-3.8,6.4-6.4,12.8-8,18.9c-1.7,6.1-2.4,11.7-2.9,16.7c-0.5,5-0.7,9.3-0.8,12.8
							c-0.1,3.5-0.3,6.2-0.3,8.1c0,0.9-0.1,1.6-0.1,2.1C475.2,396.6,475.2,396.9,475.2,396.9z"/>
					</g>
				</g>
			</g>
			<g>
				<g>
					<g>
						<path class="st5" d="M472.2,398.1c0,0,0-0.2,0-0.6c0-0.4,0-1,0.1-1.8c0-1.6,0.1-3.9,0.2-6.9c0.2-6.1,0.4-14.9,0.7-26.2
							c0.3-11.3,0.7-25,1.1-40.7c0.1-3.9,0.2-8,0.3-12.2c0.1-2.1-0.1-4.2-0.3-6.4c-0.2-1.1-0.3-2.1-0.5-3.2
							c-0.2-1.1-0.4-2.1-0.7-3.2c-1-4.3-2.5-8.6-4.5-12.8c-2-4.2-4.3-8.3-7.3-12.2l0,0l0,0c-15.3-9.6-31.9-20.1-49.4-31.1
							c-4.4-2.8-8.8-5.6-13.3-8.4c-4.4-3-9.2-5.6-14.1-7.9c-4.9-2.3-10.1-4.4-15.3-6.1c-2.6-0.9-5.3-1.7-8-2.5
							c-2.7-0.7-5.4-1.5-8.2-2c-10.6-2.4-21.4-3.5-31.9-4c-10.5-0.5-20.8-0.5-30.8,0.1l-0.3,0l0.1,0.3c4.7,21.2,9.2,41.1,13.3,59.4
							l0,0l0,0c2.5,4.1,4.5,8.4,6,12.8c1.4,4.4,2.3,8.8,2,13.2c-0.3,4.4-0.5,8.7-0.6,12.9c-0.1,4.2-0.2,8.2-0.2,12.1
							c-0.2,15.7-0.3,29.4-0.3,40.7c0,11.3,0,20.1,0,26.2c0,3,0,5.3,0,6.9c0,0.8,0,1.4,0,1.8c0,0.4,0,0.6,0,0.6s0-0.2,0-0.6
							c0-0.4,0-1,0-1.8c0-1.6,0-3.9,0-6.9c0-6.1,0.1-14.9,0.2-26.2c0.1-11.3,0.2-25,0.4-40.7c0.1-3.9,0.2-8,0.3-12.1
							c0.1-4.2,0.2-8.4,0.6-12.8c0.3-4.4-0.6-9-2-13.4c-1.5-4.4-3.5-8.7-6-12.9l0,0.1c-4.1-18.3-8.5-38.3-13.2-59.4l-0.2,0.3
							c10-0.6,20.3-0.6,30.8-0.1c10.5,0.5,21.2,1.7,31.8,4c2.8,0.6,5.5,1.3,8.2,2c2.7,0.8,5.4,1.6,8,2.5c5.3,1.8,10.4,3.8,15.3,6.1
							c4.9,2.3,9.7,4.9,14.1,7.8c4.5,2.8,9,5.6,13.4,8.4c17.6,11.1,34.2,21.5,49.5,31.1l-0.1,0c3,3.8,5.3,7.9,7.3,12.1
							c2,4.2,3.4,8.5,4.4,12.7c2.2,8.6,1.1,17,1.1,24.9c-0.4,15.7-0.7,29.4-1,40.7c-0.3,11.3-0.5,20.2-0.6,26.2
							c-0.1,3-0.1,5.3-0.1,6.9c0,0.8,0,1.4,0,1.8C472.2,397.9,472.2,398.1,472.2,398.1z"/>
					</g>
				</g>
			</g>
			<g>
				<g>
					<g>
						<path class="st5" d="M290.6,211.6c0,0-0.2,0-0.5,0c-0.3,0-0.8,0-1.4,0c-1.2,0-3-0.1-5.3-0.1c-4.6-0.1-11.3-0.2-19.7-0.4
							c-16.7-0.3-40-0.7-66.4-1.1l-0.1,0l-0.1,0.1c-3,3.6-6.1,7.5-9.3,11.4c-9.4,11.6-18.4,22.6-26.6,32.6c-1,1.3-2,2.5-3,3.7
							c-1,1.2-1.8,2.6-2.5,4c-1.3,2.8-2,5.8-2,8.7c0,2.9,0.6,5.7,1.6,8.2c1.1,2.4,2.1,4.8,3,7c3.9,9,7,16.2,9.2,21.2
							c1.1,2.5,1.9,4.4,2.5,5.8c0.3,0.6,0.5,1.1,0.7,1.5c0.2,0.3,0.2,0.5,0.2,0.5s-0.1-0.2-0.2-0.5c-0.1-0.4-0.4-0.9-0.6-1.5
							c-0.6-1.3-1.4-3.3-2.4-5.8c-2.1-5-5.2-12.3-9-21.3c-1.7-4.5-4.8-9.3-4.5-15.1c0-2.8,0.7-5.8,2-8.5c0.7-1.4,1.5-2.7,2.4-3.9
							c1-1.2,2-2.5,3-3.7c8.2-10,17.2-21,26.6-32.5c3.2-3.9,6.3-7.7,9.3-11.4l-0.2,0.1c26.4,0.4,49.7,0.7,66.4,1
							c8.3,0.1,15,0.2,19.7,0.2c2.3,0,4.1,0,5.3,0c0.6,0,1,0,1.4,0C290.5,211.7,290.6,211.6,290.6,211.6z"/>
					</g>
				</g>
			</g>
			<g>
				<g>
					<g>
						<path class="st5" d="M324.1,299.9c0,0-0.3,0-0.8-0.1c-0.5-0.1-1.3-0.3-2.1-0.8c-0.8-0.5-1.7-1.5-2.1-2.8
							c-0.2-0.7-0.3-1.4-0.3-2.2c0-0.8,0.2-1.6,0.6-2.4c0.8-1.5,2.5-2.8,4.6-2.8c2.1,0,4.4,0,6.7,0c4.8,0,10,0,15.5,0
							c1.3,0,2.6,0.5,3.5,1.4c0.9,0.9,1.5,2,1.7,3.3c0.1,1.3,0,2.5-0.6,3.5c-0.6,1-1.5,1.8-2.6,2.3c-1.1,0.5-2.2,0.4-3.3,0.4
							c-1.1,0-2.2,0-3.3,0c-2.1,0-4.1,0-5.9,0c-3.6,0-6.4,0.1-8.5,0.1c-1,0-1.7,0-2.3,0C324.4,299.9,324.1,299.9,324.1,299.9
							c0,0,0.3,0,0.8,0.1c0.6,0,1.3,0,2.3,0c2.1,0,5,0,8.5,0.1c1.8,0,3.8,0,5.9,0c1.1,0,2.1,0,3.3,0c0.6,0,1.1,0,1.7,0
							c0.6,0,1.2-0.2,1.8-0.4c1.1-0.5,2.2-1.3,2.8-2.5c0.7-1.1,0.8-2.5,0.7-3.8c-0.1-1.3-0.8-2.7-1.8-3.6c-1-0.9-2.4-1.5-3.9-1.5
							c-5.5,0-10.7,0-15.5,0c-2.4,0-4.6,0-6.7,0c-2.2,0-4.1,1.4-4.9,3.1c-0.4,0.8-0.6,1.7-0.6,2.5c0,0.8,0.1,1.6,0.3,2.3
							c0.5,1.4,1.4,2.3,2.3,2.9c0.9,0.5,1.7,0.7,2.2,0.8C323.9,300,324.1,299.9,324.1,299.9z"/>
					</g>
				</g>
			</g>
			<g>
				<g>
					<g>
						<path class="st5" d="M176.2,299.9c0,0-0.3,0-0.8-0.1c-0.5-0.1-1.3-0.3-2.1-0.8c-0.8-0.5-1.7-1.5-2.1-2.8
							c-0.2-0.7-0.3-1.4-0.3-2.2c0-0.8,0.2-1.6,0.6-2.4c0.8-1.5,2.5-2.8,4.6-2.8c2.1,0,4.4,0,6.7,0c4.8,0,10,0,15.5,0
							c1.3,0,2.6,0.5,3.5,1.4c0.9,0.9,1.5,2,1.7,3.3c0.1,1.3,0,2.5-0.6,3.5c-0.6,1-1.5,1.8-2.6,2.3c-1.1,0.5-2.2,0.4-3.3,0.4
							c-1.1,0-2.2,0-3.3,0c-2.1,0-4.1,0-5.9,0c-3.6,0-6.4,0.1-8.5,0.1c-1,0-1.7,0-2.3,0C176.5,299.9,176.2,299.9,176.2,299.9
							c0,0,0.3,0,0.8,0.1c0.6,0,1.3,0,2.3,0c2.1,0,5,0,8.5,0.1c1.8,0,3.8,0,5.9,0c1.1,0,2.1,0,3.3,0c0.6,0,1.1,0,1.7,0
							c0.6,0,1.2-0.2,1.8-0.4c1.1-0.5,2.2-1.3,2.8-2.5c0.7-1.1,0.8-2.5,0.7-3.8c-0.1-1.3-0.8-2.7-1.8-3.6c-1-0.9-2.4-1.5-3.9-1.5
							c-5.5,0-10.7,0-15.5,0c-2.4,0-4.6,0-6.7,0c-2.2,0-4.1,1.4-4.9,3.1c-0.4,0.8-0.6,1.7-0.6,2.5c0,0.8,0.1,1.6,0.3,2.3
							c0.5,1.4,1.4,2.3,2.3,2.9c0.9,0.5,1.7,0.7,2.2,0.8C175.9,300,176.2,299.9,176.2,299.9z"/>
					</g>
				</g>
			</g>
			<g>
				<g>
					<path class="st7" d="M46.5,275.8h29.6c4.1,0,7.8,2.2,9.7,5.8v0c1.5,2.9,1.7,6.4,0.3,9.5l-11.6,26.4l-29.6-0.3
						C44.8,317.2,38.5,283.8,46.5,275.8z"/>
				</g>
			</g>
			<g>
				<g>
					<path class="st5" d="M457.6,272l-152.7-2.8l-99.4-1.8l-32.8-18.9c-2.7-1.5-3.4-5-1.5-7.5l20.4-26.8c2.1-2.8,5.4-4.4,8.9-4.5
						l111.2-0.9c0,0,41.9-2.4,74.8,16C421.2,244.3,457.6,272,457.6,272z"/>
				</g>
			</g>
			<g>
				<g>
					<path class="st6" d="M387.6,211.6c0,0-7.7,3.5-2.7,6.7c5,3.2,82.4,52,82.4,52l17.8-8.1C453.5,244.7,421.7,227.7,387.6,211.6z"
						/>
				</g>
			</g>
			<g>
				<g>
					<g>
						<path class="st5" d="M464.8,271.5c0,0,0.2,0.1,0.5,0.1c0.3,0.1,0.8,0.2,1.4,0.3c1.3,0.3,3.1,0.6,5.4,1.1
							c4.7,0.9,11.6,2.3,20,3.7c17,2.9,40.5,6.3,66.7,8.6c6.5,0.6,12.9,1,19.1,1.4c6.2,0.4,12.1,0.8,17.8,1.3
							c11.3,1,21.5,2.6,29.7,5.1c8.3,2.4,14.6,5.4,18.7,7.8c2.1,1.1,3.6,2.2,4.7,2.9c0.5,0.3,0.9,0.6,1.2,0.8
							c0.3,0.2,0.4,0.2,0.4,0.2s-0.1-0.1-0.4-0.3c-0.3-0.2-0.7-0.5-1.2-0.8c-1.1-0.7-2.6-1.8-4.7-3c-4.1-2.5-10.4-5.6-18.7-8
							c-8.3-2.5-18.4-4.2-29.8-5.2c-5.7-0.5-11.6-0.9-17.8-1.3c-6.2-0.4-12.6-0.9-19.1-1.5c-26.2-2.3-49.7-5.6-66.7-8.4
							c-8.5-1.4-15.3-2.7-20.1-3.6c-2.3-0.4-4.2-0.8-5.4-1c-0.6-0.1-1.1-0.2-1.4-0.3C464.9,271.6,464.8,271.5,464.8,271.5z"/>
					</g>
				</g>
			</g>
			<g>
				<g>
					<g>
						<path class="st5" d="M34.6,339.9c0,0.1,10.2,0.3,22.7,0.3c12.6,0,22.7-0.1,22.7-0.3s-10.2-0.3-22.7-0.3
							C44.8,339.7,34.6,339.8,34.6,339.9z"/>
					</g>
				</g>
			</g>
			<g>
				<g>
					<g>
						<path class="st5" d="M220.9,365.9c0,0.1,57.5,0.3,128.3,0.3c70.9,0,128.3-0.1,128.3-0.3c0-0.1-57.5-0.3-128.3-0.3
							C278.3,365.7,220.9,365.8,220.9,365.9z"/>
					</g>
				</g>
			</g>
			<g>
				<g>
					<g>
						<path class="st5" d="M623.2,340.8c0,0.1,8.1,0.3,18.1,0.3c10,0,18.1-0.1,18.1-0.3s-8.1-0.3-18.1-0.3
							C631.3,340.5,623.2,340.7,623.2,340.8z"/>
					</g>
				</g>
			</g>
			<g>
				<g>
					<path class="st6" d="M94.9,229.2c0,0,6.8,7.6,4.1,13.2s-30.4,25.2-30.4,25.2l-20.1,3.8L94.9,229.2z"/>
				</g>
			</g>
			<g>
				<g>
					<polygon class="st6" points="286.1,215.5 290.6,264.4 209.7,262.1 177.1,243.1 198.2,215.5 					"/>
				</g>
			</g>
			<g>
				<g>
					<path class="st6" d="M438.4,266.9c0,0-48.8-35.3-68.1-42.3c-18.6-6.8-28.3-8.5-45.7-9c-16.7-0.5-26.9,0-26.9,0l12.9,49.6
						L438.4,266.9z"/>
				</g>
			</g>
			<g>
				<g>
					<g>
						<path class="st11" d="M445.6,267L445.6,267c0-3.1-1.7-5.9-4.4-7.5l-11.2-6.3c-3.2-1.8-6.8-2.7-10.5-2.7l0,0
							c-2.3,0-4.5,0.4-6.7,1.1c-4.8,1.6-8,6.1-8.2,11.2l0,0c-0.3,7,5.3,12.8,12.3,12.8h20C441.7,275.6,445.6,271.8,445.6,267z"/>
					</g>
				</g>
				<g>
					<g>
						<g>
							<path class="st5" d="M445.6,267c0,0,0,0.4-0.1,1.1c-0.1,0.7-0.3,1.7-1,2.9c-0.7,1.2-1.8,2.5-3.4,3.4
								c-0.8,0.4-1.8,0.8-2.9,0.9c-1.1,0.1-2.2,0.1-3.4,0.1c-4.9,0-10.7,0-17.1-0.1c-1.6,0-3.2-0.2-4.8-0.8c-1.5-0.6-3-1.5-4.2-2.7
								c-1.2-1.2-2.2-2.7-2.9-4.3c-0.6-1.7-0.9-3.5-0.7-5.3c0.3-3.6,2.2-7,5-9c1.4-1,3-1.6,4.6-2c1.6-0.4,3.3-0.6,4.8-0.6
								c3.2,0,6.2,0.7,8.8,1.9c1.3,0.6,2.5,1.3,3.6,1.9c1.2,0.6,2.3,1.3,3.3,1.9c2.1,1.2,4.1,2.2,5.7,3.2c1.7,0.9,2.8,2.2,3.4,3.4
								c0.7,1.2,0.9,2.2,1,2.9C445.5,266.7,445.5,267,445.6,267c0,0,0.1-0.4,0-1.1c-0.1-0.7-0.3-1.8-0.9-3c-0.6-1.2-1.7-2.6-3.5-3.5
								c-1.7-1-3.6-2.1-5.7-3.3c-1.1-0.6-2.2-1.2-3.3-1.9c-1.2-0.6-2.3-1.4-3.7-2c-2.6-1.2-5.7-2-9-2c-1.6,0-3.3,0.2-5,0.6
								c-1.6,0.4-3.4,1-4.8,2c-3,2-5,5.5-5.3,9.3c-0.1,1.9,0.1,3.8,0.8,5.5c0.7,1.7,1.7,3.3,3,4.5c1.3,1.2,2.8,2.2,4.4,2.8
								c1.6,0.6,3.3,0.8,4.9,0.8c6.4,0,12.2,0,17.1-0.1c1.2,0,2.4,0,3.5-0.1c1.1-0.2,2.1-0.5,3-1c1.7-1,2.8-2.3,3.5-3.5
								c0.6-1.2,0.8-2.3,0.9-3C445.6,267.4,445.6,267,445.6,267z"/>
						</g>
					</g>
				</g>
			</g>
			<g>
				<g>
					<g>
						<path class="st13" d="M69.4,397.3c0,0,0-0.2,0-0.7c0-0.5-0.1-1.2-0.1-2c-0.1-0.9-0.2-2-0.2-3.3c0-1.3-0.1-2.8-0.2-4.5
							c0-1.7,0-3.6,0-5.6c0.1-2.1,0.1-4.3,0.4-6.7c0.4-4.8,1.2-10.3,2.9-16.1c0.9-2.9,1.8-5.9,3.2-9c1.3-3,2.9-6.1,4.8-9.1
							c3.8-6,9.2-11.6,15.6-16.3c6.5-4.7,14.1-8.5,22.4-11.1c8.3-2.6,17.4-3.5,26.7-3.6c9.2,0,18.3,1.2,26.6,3.9
							c4.2,1.3,8.1,3,11.8,4.9c3.7,1.9,7.1,4.3,10.3,6.7c6.3,5,11.6,10.5,15.8,16.2c2.1,2.9,3.8,5.9,5.3,8.8c1.4,3,2.7,5.9,3.6,8.8
							c4,11.5,5.3,21.3,5.8,28.1c0.2,3.4,0.1,6,0.1,7.8c-0.1,0.9-0.1,1.6-0.1,2c0,0.5,0,0.7,0,0.7s0-0.2,0.1-0.7
							c0-0.5,0.1-1.1,0.2-2c0.1-1.8,0.2-4.4,0-7.8c-0.4-6.8-1.6-16.7-5.6-28.2c-1-2.9-2.2-5.8-3.6-8.8c-1.5-3-3.2-6-5.3-8.9
							c-4.2-5.8-9.6-11.4-15.9-16.4c-3.2-2.5-6.6-4.8-10.3-6.8c-3.7-1.9-7.7-3.6-11.9-4.9c-8.4-2.7-17.5-3.9-26.8-3.9
							c-9.3,0.1-18.4,1-26.8,3.6c-8.4,2.5-16.1,6.4-22.6,11.2c-3.2,2.4-6.2,5-8.8,7.8c-2.6,2.8-5,5.7-6.9,8.7
							c-1.9,3-3.6,6.1-4.8,9.2c-1.3,3-2.3,6.1-3.2,9c-1.6,5.9-2.4,11.3-2.8,16.2c-0.3,2.4-0.3,4.7-0.4,6.7c0,2.1,0,4,0,5.7
							c0.1,1.7,0.1,3.2,0.2,4.5c0.1,1.3,0.2,2.4,0.3,3.3c0.1,0.9,0.1,1.6,0.2,2C69.4,397.1,69.4,397.3,69.4,397.3z"/>
					</g>
				</g>
			</g>
			<g>
				<g>
					<g>
						<path class="st14" d="M528.8,308.6"/>
					</g>
				</g>
			</g>
			<g>
				<g>
					<g>
						<path class="st13" d="M312.8,272c0,0,0.1,0,0.2,0c0.2,0,0.4,0,0.7,0c0.6,0,1.5,0,2.6,0.1c2.3,0,5.6,0.1,9.6,0.2
							c8.1,0.2,19.3,0.4,31.6,0.8c12.4,0.3,23.6,0.6,31.7,0.6c4.1,0,7.3,0,9.6,0c1.1,0,2,0,2.6,0c0.3,0,0.5,0,0.7,0
							c0.2,0,0.2,0,0.2,0c0,0-0.1,0-0.2,0c-0.2,0-0.4,0-0.7,0c-0.6,0-1.5,0-2.6-0.1c-2.3,0-5.6-0.1-9.6-0.2
							c-8.1-0.2-19.3-0.4-31.6-0.8c-12.4-0.3-23.5-0.6-31.6-0.6c-4.1,0-7.3,0-9.6,0c-1.1,0-2,0-2.6,0c-0.3,0-0.5,0-0.7,0
							C312.8,272,312.8,272,312.8,272z"/>
					</g>
				</g>
			</g>
			<g>
				<g>
					<g>
						<path class="st13" d="M326,287.1c0,0.1,3.9,0.3,8.8,0.3c4.8,0,8.8-0.1,8.8-0.3c0-0.1-3.9-0.3-8.8-0.3
							C329.9,286.8,326,286.9,326,287.1z"/>
					</g>
				</g>
			</g>
			<g>
				<g>
					<g>
						<path class="st13" d="M322.8,233.6c-0.1,0.1,10.8,4.7,24.3,10.1c13.5,5.5,24.4,9.8,24.5,9.6c0.1-0.1-10.8-4.7-24.3-10.1
							C333.8,237.7,322.9,233.4,322.8,233.6z"/>
					</g>
				</g>
			</g>
			<g>
				<g>
					<g>
						<path class="st13" d="M344.8,237c-0.1,0.1,10.3,4.7,23.1,10.2c12.8,5.5,23.3,9.8,23.3,9.7c0.1-0.1-10.3-4.7-23.1-10.2
							C355.4,241.2,344.9,236.9,344.8,237z"/>
					</g>
				</g>
			</g>
			<g>
				<g>
					<g>
						<path class="st13" d="M205.1,231.7c-0.1,0.1,10.8,4.7,24.3,10.1c13.5,5.5,24.4,9.8,24.5,9.6c0.1-0.1-10.8-4.7-24.3-10.1
							C216.1,235.9,205.1,231.5,205.1,231.7z"/>
					</g>
				</g>
			</g>
			<g>
				<g>
					<g>
						<path class="st13" d="M227.1,235.1c-0.1,0.1,10.3,4.7,23.1,10.2c12.8,5.5,23.3,9.8,23.3,9.7c0.1-0.1-10.3-4.7-23.1-10.2
							C237.6,239.3,227.2,235,227.1,235.1z"/>
					</g>
				</g>
			</g>
			<g>
				<g>
					<g>
						<path class="st13" d="M203,272c0,0.1,21.6,0.4,48.3,0.5c26.7,0.2,48.3,0.2,48.3,0c0-0.1-21.6-0.4-48.3-0.5
							C224.6,271.9,203,271.9,203,272z"/>
					</g>
				</g>
			</g>
			<g>
				<g>
					<g>
						<path class="st13" d="M179,286.2c0,0.1,6.1,0.3,13.5,0.4c7.5,0.1,13.6,0,13.6-0.1c0-0.1-6.1-0.3-13.5-0.4
							C185.1,286,179,286.1,179,286.2z"/>
					</g>
				</g>
			</g>
			<g>
				<g>
					<g>
						<path class="st13" d="M593.2,278.9c0,0,0.2,0.1,0.6,0.1c0.4,0.1,1,0.1,1.7,0.2c0.7,0.1,1.6,0.2,2.7,0.4c1,0.2,2.2,0.3,3.5,0.6
							c2.6,0.5,5.7,1.1,9.1,2c3.4,0.9,7,2.1,10.8,3.6c3.8,1.5,7.3,3.1,10.4,4.7c3.1,1.6,5.8,3.2,8,4.7c1.1,0.7,2.1,1.4,3,2
							c0.9,0.6,1.6,1.1,2.2,1.6c0.6,0.4,1,0.7,1.4,1c0.3,0.2,0.5,0.3,0.5,0.3c0,0-0.1-0.2-0.4-0.4c-0.3-0.3-0.8-0.6-1.3-1.1
							c-0.6-0.5-1.3-1-2.2-1.6c-0.9-0.6-1.8-1.3-2.9-2c-2.2-1.5-4.9-3.1-8-4.8c-3.1-1.6-6.6-3.3-10.4-4.8c-3.8-1.5-7.5-2.6-10.9-3.6
							c-3.4-0.9-6.5-1.5-9.1-1.9c-1.3-0.2-2.5-0.4-3.6-0.5c-1-0.1-2-0.2-2.7-0.3c-0.7-0.1-1.3-0.1-1.7-0.1
							C593.4,278.8,593.2,278.8,593.2,278.9z"/>
					</g>
				</g>
			</g>
			<g>
				<g>
					<g>
						<path class="st13" d="M414.6,255.3c0,0,0.3-0.4,1-0.9c0.7-0.5,1.8-1.1,3.3-1.3c1.5-0.2,3.4,0.1,5.3,0.6c2,0.5,4.1,1.2,6.3,2.1
							c4.3,1.9,7.9,4.4,10.2,6.4c2.4,2,3.6,3.5,3.7,3.4c0,0-0.3-0.4-0.8-1.1c-0.6-0.7-1.5-1.6-2.6-2.6c-2.3-2.1-5.9-4.7-10.3-6.6
							c-2.2-1-4.4-1.7-6.4-2.1c-2-0.5-3.9-0.7-5.5-0.5c-1.6,0.2-2.7,0.9-3.4,1.5c-0.3,0.3-0.5,0.6-0.7,0.8
							C414.6,255.1,414.6,255.3,414.6,255.3z"/>
					</g>
				</g>
			</g>
		</g>
		<g>
			<g>
				<g>
					<path class="st5" d="M92.6,228.9c0,0,1.5,0.4,4.3,0.4c1.4,0,3.1-0.2,5-0.6c1.9-0.4,4.1-1.1,6.4-2c2.3-0.9,4.8-2,7.4-3.1
						c1.3-0.5,2.7-1.1,4.2-1.7c1.4-0.6,2.9-1.1,4.5-1.6c6.1-2.1,13-4,20.4-5.6c14.7-3.1,28.3-4.4,38.1-4.7c2.5-0.1,4.7-0.1,6.6-0.2
						c1.9,0,3.6,0,5,0c1.3,0,2.4,0.1,3.2,0.1c0.3,0,0.6,0,0.8,0c0.2,0,0.3,0,0.3,0c0,0-0.1,0-0.3,0c-0.2,0-0.5,0-0.8-0.1
						c-0.8,0-1.8-0.1-3.2-0.2c-1.4,0-3.1-0.1-5-0.1c-2,0-4.2,0-6.6,0.1c-9.8,0.3-23.5,1.5-38.2,4.6c-7.4,1.6-14.3,3.5-20.4,5.6
						c-1.5,0.6-3,1.1-4.5,1.6c-1.4,0.6-2.8,1.2-4.2,1.7c-2.7,1.2-5.1,2.3-7.4,3.2c-2.3,0.9-4.4,1.6-6.3,2c-1.9,0.4-3.6,0.6-4.9,0.7
						c-1.4,0-2.4,0-3.2-0.1c-0.3,0-0.6-0.1-0.8-0.1C92.7,228.8,92.6,228.8,92.6,228.9z"/>
				</g>
			</g>
		</g>
	</g>
</g>
<g id="Character">
	<g>
		<g>
			<g>
				<path class="st8" d="M573.8,230.2c4-21.9,6.7-25.2,8.9-32.8c2.2-7.4,5.8-12.4,10.3-14.1c3-1.2,18.1-6.6,23.3-4.8
					c5.8,2,10.9,4.9,14.5,7.3c3.5,2.3,6.2,5.7,7.6,9.7l8.1,22.6l-14.1,14l-7.1-15l-7.7,18l1.1,18.2l-43.9,11.8
					C570.9,258.7,571.5,242.6,573.8,230.2z"/>
			</g>
			<g>
				<g class="st15">
					<g>
						<path d="M585.2,206.4c1.9,11.4,2.2,13,4.2,24.4c0.7,3.9,2.6,10,5.4,12.8c2.1,2.1,4.1,4.1,6.9,4.8c2.7,0.6,6.7,0.7,9.2-0.4
							c2.5-1.1,4.6-6,3.6-8.5c-3.7,0.8-4.9,2-8.1,0c-2.8-1.8-6.8-5.7-8.3-8.7C591.8,218.3,590,217.9,585.2,206.4"/>
					</g>
				</g>
			</g>
			<g>
				<g>
					<path class="st5" d="M617,228.4c0.1,0,0.8-1.1,1.9-3c1.2-2,2.8-4.6,4.5-7.4c1.8-2.8,3.4-5.3,4.6-7.3c1.2-1.9,1.9-3,1.9-3.1
						c0,0-0.3,0.2-0.6,0.7c-0.4,0.5-0.9,1.2-1.5,2.1c-1.3,1.8-3,4.4-4.8,7.2c-1.8,2.9-3.3,5.5-4.4,7.5c-0.5,1-1,1.8-1.2,2.3
						C617.1,228.1,617,228.4,617,228.4z"/>
				</g>
			</g>
			<g>
				<g>
					<path class="st5" d="M586.3,248.9c0,0,0.4,0.2,1,0.4c0.3,0.1,0.8,0.2,1.2,0.3c0.5,0.1,1,0.3,1.7,0.4c1.3,0.2,2.8,0.4,4.4,0.4
						c1.7,0,3.5-0.1,5.5-0.5c1.9-0.4,3.7-0.9,5.3-1.5c1.6-0.6,2.9-1.3,4-1.9c0.6-0.3,1-0.6,1.4-0.9c0.4-0.3,0.8-0.5,1-0.8
						c0.6-0.4,0.8-0.7,0.8-0.7c-0.1-0.1-1.3,0.9-3.5,2.1c-1.1,0.6-2.5,1.2-4,1.8c-1.6,0.6-3.3,1.1-5.2,1.4c-1.9,0.3-3.7,0.5-5.4,0.5
						c-1.7,0-3.1-0.1-4.4-0.3C587.9,249.2,586.4,248.8,586.3,248.9z"/>
				</g>
			</g>
			<g>
				<g>
					<g>
						<path class="st16" d="M604,214.8c0.1,0.4,4.8,9.8,4.8,9.8l22.3-11.7l2.3-9.6c0.4-1.5,1.3-2.8,2.6-3.6c1.4-0.9,3.1-1.2,4.6-0.8
							l6.6,2.7c0.5,0.2,1,0.7,1.1,1.3c0.1,0.5,0,1-0.9,0.9c-1.6-0.1-5-0.5-5-0.5l1.6,5.5c0.4,1.4,0.2,3-0.4,4.3l-1,1.9l-2.2,3.5l0,0
							c0,0-21.7,22.2-33.8,23.7c-7.3,0.9-15.6-19.6-15.6-19.6L604,214.8z"/>
					</g>
					<g>
						<g>
							<g>
								<g>
									<g>
										<g>
											<path class="st17" d="M642.5,203.5c0,0-0.2-0.2-0.5-0.5c-0.4-0.2-1-0.5-1.7-0.5c-0.7,0-1.3,0.5-1.5,1
												c-0.2,0.4-0.1,0.8,0,0.7c0.1,0,0-0.3,0.2-0.6c0.2-0.3,0.7-0.7,1.3-0.7c0.6,0,1.2,0.2,1.6,0.4
												C642.2,203.4,642.4,203.6,642.5,203.5z"/>
										</g>
									</g>
								</g>
							</g>
							<g>
								<g>
									<g>
										<g>
											<path class="st17" d="M639.7,206.9c0,0,0.1-0.2,0.4-0.4c0.2-0.3,0.6-0.6,1-0.8c0.5-0.2,0.9-0.2,1.3-0.1
												c0.3,0,0.5,0.1,0.6,0.1c0,0-0.2-0.2-0.5-0.3c-0.4-0.1-0.9-0.2-1.4,0.1c-0.5,0.2-0.9,0.6-1.1,0.9
												C639.7,206.7,639.6,206.9,639.7,206.9z"/>
										</g>
									</g>
								</g>
							</g>
						</g>
					</g>
				</g>
				<g>
					<path class="st8" d="M599.3,185.1l6,28.6l-16,9.6l-6.1-17.6C583.2,205.7,585.8,184.4,599.3,185.1z"/>
				</g>
				<g>
					<g>
						<path class="st0" d="M590.7,185.6c0,0,0.1,0.1,0.4,0.3c0.3,0.2,0.7,0.4,1.2,0.6c1.1,0.5,2.6,1.3,4.6,2.2
							c3.9,1.7,9.4,3.9,15.9,5c6.5,1.1,12.5,0.6,16.6-0.6c2.1-0.6,3.7-1.2,4.8-1.7c0.5-0.2,0.9-0.5,1.2-0.6c0.3-0.2,0.4-0.2,0.4-0.3
							c0,0-0.6,0.2-1.7,0.7c-1.1,0.5-2.7,1-4.8,1.5c-4.1,1-10.1,1.5-16.4,0.4c-6.4-1.1-11.9-3.2-15.8-4.8c-2-0.8-3.5-1.5-4.6-2
							C591.3,185.8,590.7,185.6,590.7,185.6z"/>
					</g>
				</g>
				<g>
					<g>
						<path class="st0" d="M586.5,188.8c0,0,0.1,0.1,0.4,0.3c0.4,0.2,0.8,0.5,1.3,0.8c0.6,0.4,1.3,0.8,2.2,1.3
							c0.9,0.5,1.8,1,2.9,1.5c0.6,0.3,1.1,0.5,1.7,0.8c0.6,0.3,1.3,0.5,1.9,0.8c1.3,0.6,2.8,1,4.3,1.5c3.1,0.9,6.6,1.7,10.3,2.2
							c3.7,0.4,7.3,0.5,10.5,0.3c1.6-0.1,3.2-0.2,4.6-0.5c0.7-0.1,1.4-0.2,2.1-0.3c0.7-0.1,1.3-0.3,1.9-0.4c1.2-0.2,2.3-0.5,3.2-0.8
							c0.9-0.2,1.7-0.5,2.4-0.7c0.6-0.2,1.1-0.4,1.5-0.5c0.3-0.1,0.5-0.2,0.5-0.2s-0.2,0-0.5,0.1c-0.4,0.1-0.9,0.3-1.5,0.4
							c-0.7,0.2-1.5,0.4-2.4,0.6c-0.9,0.2-2,0.5-3.2,0.7c-0.6,0.1-1.2,0.2-1.9,0.3c-0.7,0.1-1.3,0.2-2.1,0.3
							c-1.4,0.2-2.9,0.3-4.6,0.4c-3.2,0.1-6.8,0.1-10.5-0.4c-3.7-0.5-7.1-1.2-10.2-2.1c-1.5-0.5-3-0.9-4.3-1.5
							c-0.7-0.3-1.3-0.5-1.9-0.7c-0.6-0.3-1.2-0.5-1.8-0.8c-1.1-0.5-2.1-1-3-1.4c-0.9-0.4-1.6-0.8-2.2-1.2c-0.6-0.3-1-0.6-1.4-0.8
							C586.7,188.8,586.5,188.7,586.5,188.8z"/>
					</g>
				</g>
				<g>
					<g>
						<path class="st5" d="M589.4,223.3c0,0,0.5-0.2,1.3-0.7c0.9-0.5,2.1-1.2,3.5-2c3-1.8,7.2-4.2,12-6.9l0.2-0.1l0-0.2
							c-0.4-2.1-0.9-4.4-1.4-6.8c-0.7-3.6-1.4-6.9-2.1-10c-0.3-1.5-0.6-3-0.9-4.4c-0.3-1.4-0.7-2.6-1.3-3.7
							c-1.1-2.2-2.9-3.4-4.1-3.8c-0.6-0.2-1.2-0.3-1.5-0.3c-0.4,0-0.5,0-0.5,0.1c0,0.1,0.8-0.1,2,0.4c1.2,0.5,2.9,1.6,3.9,3.8
							c0.5,1,0.9,2.3,1.2,3.6c0.3,1.4,0.6,2.8,0.9,4.4c0.6,3.1,1.3,6.5,2,10c0.5,2.4,0.9,4.7,1.4,6.8l0.1-0.3
							c-4.8,2.8-8.9,5.3-11.9,7.1c-1.4,0.9-2.6,1.6-3.4,2.1C589.8,223,589.4,223.3,589.4,223.3z"/>
					</g>
				</g>
			</g>
			<g>
				<g>
					<path class="st5" d="M584.5,204.9c-0.1,0-0.1,1,0.1,2.7c0.2,1.6,0.5,3.9,1.1,6.3c0.6,2.4,1.4,4.6,2.1,6.1
						c0.7,1.5,1.2,2.4,1.2,2.4c0.1,0-0.3-1-0.9-2.5c-0.6-1.5-1.3-3.7-2-6.1c-0.6-2.4-1-4.6-1.3-6.2
						C584.7,205.9,584.6,204.9,584.5,204.9z"/>
				</g>
			</g>
		</g>
		<g>
			<g>
				<g>
					<g>
						<path class="st8" d="M671.3,363.9l0.2,15.3c0,0,15.6,4.9,15.9,7.8l-29.6,1.4l-1.3-23.8L671.3,363.9z"/>
					</g>
					<g>
						<g>
							<path class="st1" d="M662.2,378.3c-0.6,0.2-0.9,0.8-0.8,1.4c0.2,0.6,0.8,0.9,1.4,0.8c0.6-0.2,1-1,0.8-1.5
								c-0.2-0.6-1-1-1.5-0.6"/>
						</g>
					</g>
					<g>
						<path class="st1" d="M657.7,388.3l0-2.4l28.4-0.4c0,0,1.3,0.5,1.2,1.4L657.7,388.3z"/>
					</g>
					<g>
						<g>
							<path class="st5" d="M671.9,379c0,0.1-0.7,0.2-1.4,0.7c-0.7,0.5-1,1.1-1.2,1.1c-0.1,0,0-0.9,0.9-1.5
								C671,378.7,671.9,378.9,671.9,379z"/>
						</g>
					</g>
					<g>
						<g>
							<path class="st5" d="M675.1,380.1c0,0.1-0.6,0.4-1,1c-0.5,0.6-0.6,1.3-0.7,1.3c-0.1,0-0.3-0.8,0.3-1.6
								C674.2,380.1,675.1,380,675.1,380.1z"/>
						</g>
					</g>
					<g>
						<g>
							<path class="st5" d="M677,383.8c-0.1,0-0.4-0.7,0-1.5c0.3-0.8,1-1.2,1.1-1c0.1,0.1-0.3,0.6-0.6,1.2
								C677.2,383.1,677.1,383.7,677,383.8z"/>
						</g>
					</g>
					<g>
						<g>
							<path class="st5" d="M671.5,375.5c-0.1,0.1-0.7,0-1.5,0.1c-0.8,0.1-1.4,0.4-1.5,0.3c-0.1-0.1,0.5-0.7,1.5-0.8
								C670.8,375,671.5,375.4,671.5,375.5z"/>
						</g>
					</g>
				</g>
				<g class="st18">
					<polygon points="671.3,366.9 671.3,369.6 656.8,370.2 656.6,367.8 					"/>
				</g>
				<g>
					<g>
						<path class="st5" d="M671.4,372.4c0,0.1-0.6,0.2-1.5,0.1c-0.5-0.1-1-0.2-1.6-0.4c-0.3-0.1-0.6-0.2-0.9-0.4
							c-0.1-0.1-0.3-0.2-0.5-0.3c-0.2-0.1-0.3-0.5-0.1-0.8c0.1-0.2,0.4-0.3,0.6-0.4c0.2,0,0.4,0,0.6,0.1c0.3,0.1,0.6,0.2,0.9,0.3
							c0.6,0.2,1.1,0.5,1.4,0.8c0.7,0.6,1,1.1,0.9,1.2c-0.1,0.1-0.4-0.4-1.1-0.9c-0.4-0.2-0.8-0.5-1.4-0.7c-0.3-0.1-0.6-0.2-0.9-0.2
							c-0.3-0.1-0.6-0.1-0.7,0.1c0,0.1,0,0.1,0,0.2c0.1,0.1,0.2,0.2,0.3,0.2c0.3,0.2,0.5,0.3,0.8,0.4c0.5,0.2,1,0.4,1.5,0.5
							C670.8,372.4,671.4,372.4,671.4,372.4z"/>
					</g>
				</g>
				<g>
					<g>
						<path class="st5" d="M671.2,372.7c-0.1,0-0.4-0.5-0.5-1.4c0-0.5,0-1,0.1-1.6c0.1-0.3,0.2-0.6,0.3-0.9c0.2-0.3,0.4-0.7,0.9-0.8
							c0.3,0,0.5,0.2,0.6,0.4c0.1,0.2,0.1,0.4,0.2,0.5c0.1,0.3,0.1,0.7,0,1c-0.1,0.6-0.3,1.2-0.6,1.6c-0.5,0.8-1.1,1-1.2,0.9
							c-0.1-0.1,0.4-0.4,0.8-1.1c0.2-0.4,0.4-0.9,0.4-1.4c0-0.3,0-0.6-0.1-0.9c-0.1-0.3-0.2-0.6-0.3-0.5c-0.1,0-0.4,0.3-0.5,0.5
							c-0.1,0.3-0.2,0.5-0.3,0.8c-0.2,0.5-0.2,1.1-0.2,1.5C671.1,372.1,671.3,372.6,671.2,372.7z"/>
					</g>
				</g>
			</g>
			<g>
				<g>
					<path class="st19" d="M610.9,253.4c0,0,46.2-19.4,60.5-20.2c9-0.5,15.8,5.2,14.5,14.5c-0.6,4.6-13.4,59-13.4,59l-19.5-8.9
						l9.4-37.6l-38,18.5L610.9,253.4z"/>
				</g>
				<g>
					<g>
						<path class="st6" d="M668.3,250.7c0.2,0.1-1.4,2.1-3,4.7c-1.6,2.6-2.7,4.9-2.9,4.8c-0.2-0.1,0.6-2.5,2.3-5.1
							C666.4,252.4,668.2,250.6,668.3,250.7z"/>
					</g>
				</g>
				<g>
					<g>
						<path class="st6" d="M672.1,252.9c0.1,0.2-2.2,1.7-5,3.7c-2.7,2-4.9,3.8-5,3.7c-0.1-0.1,1.8-2.2,4.6-4.2
							C669.5,254,672,252.7,672.1,252.9z"/>
					</g>
				</g>
			</g>
			<g>
				<g>
					<path class="st19" d="M574.9,265.1c0,0,5.8,7.5,11.4,9.5c7,2.6,58.5,26.9,58.5,26.9s9.3,69.4,8.6,66.5l21.6-0.5l-2.3-63.9
						c-0.3-8.2-6.8-17.6-13.9-21.8l-47.7-28.4L574.9,265.1z"/>
				</g>
				<g>
					<g>
						<path class="st6" d="M672.9,315.2c0,0-0.1-0.3-0.1-0.9c0-0.6-0.1-1.5-0.1-2.5c-0.1-2.2-0.2-5.3-0.9-9.2
							c-0.6-3.8-1.8-8.4-4.7-12.7c-1.4-2.1-3.3-4-5.5-5.7c-2.2-1.7-4.7-3.2-7.3-4.6c-10.4-5.9-19.3-12-25.9-16.2
							c-3.3-2.1-6-3.8-7.8-4.9c-0.9-0.5-1.6-1-2.1-1.3c-0.5-0.3-0.7-0.5-0.7-0.5c0,0,0.3,0.1,0.8,0.4c0.5,0.3,1.3,0.7,2.2,1.2
							c1.9,1.1,4.6,2.7,8,4.7c6.7,4.1,15.7,10,26,16c2.6,1.5,5.1,3,7.4,4.7c2.3,1.7,4.2,3.7,5.7,5.9c2.9,4.4,4,9.1,4.6,12.9
							c0.6,3.9,0.6,7.1,0.6,9.3c0,1,0,1.9,0,2.5C673,314.9,672.9,315.2,672.9,315.2z"/>
					</g>
				</g>
			</g>
			<g>
				<g>
					<path class="st6" d="M593.9,272.4c-0.1-0.1,0.5-0.7,1.3-1.8c0.8-1.1,1.6-2.8,2-4.8c0.4-2,0.3-3.9,0-5.2
						c-0.3-1.3-0.6-2.1-0.5-2.1c0.1,0,0.6,0.7,1,2c0.4,1.3,0.6,3.3,0.2,5.5c-0.4,2.1-1.4,3.9-2.3,4.9
						C594.7,272,594,272.4,593.9,272.4z"/>
				</g>
			</g>
			<g>
				<g>
					<path class="st6" d="M666.9,367.4c0,0,0-0.1-0.1-0.4c0-0.3-0.1-0.6-0.1-1c-0.1-1-0.2-2.3-0.4-4c-0.4-3.6-0.8-8.6-1.5-14.9
						c-0.3-3.1-0.6-6.6-1-10.3c-0.4-3.7-0.7-7.6-1-11.8c-0.3-4.2-0.7-8.5-1.5-13c-0.8-4.4-1.9-9-4-13.3c-2-4.3-4.8-8.1-7.8-11.5
						c-3.1-3.3-6.4-6.1-9.8-8.6c-6.7-4.9-13.3-8.5-18.8-11.7c-5.5-3.1-9.8-5.8-12.7-7.8c-1.5-1-2.6-1.8-3.3-2.4
						c-0.3-0.3-0.6-0.5-0.8-0.7c-0.2-0.2-0.3-0.2-0.3-0.2c0,0,0.1,0.1,0.3,0.2c0.2,0.2,0.5,0.4,0.9,0.6c0.8,0.5,1.9,1.3,3.4,2.3
						c2.9,1.9,7.3,4.6,12.8,7.6c5.5,3.1,12.1,6.7,18.9,11.6c3.4,2.5,6.8,5.3,9.9,8.6c3.1,3.4,5.9,7.2,8,11.6c2,4.4,3.2,9,4,13.5
						c0.8,4.5,1.1,8.9,1.4,13c0.3,4.2,0.6,8.1,1,11.8c0.3,3.7,0.6,7.1,0.9,10.3c0.5,6.2,0.9,11.3,1.2,14.9c0.1,1.7,0.2,3.1,0.3,4.1
						c0,0.4,0,0.8,0.1,1.1C667,367.3,667,367.4,666.9,367.4z"/>
				</g>
			</g>
		</g>
		<g>
			<g>
				<path class="st5" d="M616.2,143.3c1.3-3.8,5.8-6.1,9.6-5.2c0.9,0.2,1.8,0.6,2.7,0.6c1.1,0,2.2-0.6,3.3-0.9
					c2.4-0.5,5,1.2,5.5,3.6c1.9-0.4,4-0.1,5.5,1.1c1.5,1.2,2.2,3.5,1.3,5.2c-0.4,0.7-1,1.3-1.4,2.1c-0.6,1.2-0.3,2.7-0.7,4
					c-0.6,1.9-2.7,3.1-4.7,3.3c-2,0.2-4-0.3-6-0.9"/>
			</g>
			<g>
				<g>
					<g>
						<g>
							<g>
								<g>
									<g>
										<g>
											<g>
												<g>
													<path class="st16" d="M625.5,182.9c0.3-1.9,0.4-3.3,0.4-3.3s6.4,0,9-8c1.3-4,2.2-10.7,2.7-16.2c0.5-5-3.3-9.3-8.3-9.6
														l-17.1-0.9l-0.4,2.7l-4.5,32.9c-0.7,5,2.8,9.6,7.9,10.3l0,0C620.2,191.4,624.8,187.9,625.5,182.9z"/>
												</g>
											</g>
										</g>
									</g>
									<g>
										<g>
											<g>
												<g>
													<g>
														<path class="st5" d="M635.2,160.1c-0.1,0.6-0.6,1-1.2,0.9c-0.6-0.1-1-0.6-0.9-1.1c0.1-0.6,0.6-1,1.2-0.9
															C634.8,159,635.3,159.5,635.2,160.1z"/>
													</g>
												</g>
											</g>
										</g>
										<g>
											<g>
												<g>
													<g>
														<g>
															<path class="st5" d="M635.6,158.6c-0.2,0.1-0.9-0.6-2-0.8c-1.1-0.2-2,0.3-2.1,0.1c-0.1-0.1,0.1-0.3,0.5-0.5
																c0.4-0.2,1-0.4,1.7-0.2c0.7,0.1,1.3,0.5,1.6,0.8C635.6,158.3,635.7,158.6,635.6,158.6z"/>
														</g>
													</g>
												</g>
											</g>
										</g>
									</g>
									<g>
										<g>
											<g>
												<g>
													<g>
														<path class="st5" d="M624.4,158.3c-0.1,0.6-0.6,1-1.2,0.9c-0.6-0.1-1-0.6-0.9-1.1c0.1-0.6,0.6-1,1.2-0.9
															C624.1,157.2,624.5,157.7,624.4,158.3z"/>
													</g>
												</g>
											</g>
										</g>
										<g>
											<g>
												<g>
													<g>
														<g>
															<path class="st5" d="M624.5,157.1c-0.2,0.1-0.9-0.6-2-0.8c-1.1-0.2-2,0.3-2.1,0.1c-0.1-0.1,0.1-0.3,0.5-0.5
																c0.4-0.2,1-0.4,1.7-0.2c0.7,0.1,1.3,0.5,1.6,0.8C624.5,156.7,624.5,157,624.5,157.1z"/>
														</g>
													</g>
												</g>
											</g>
										</g>
									</g>
									<g>
										<g>
											<g>
												<g>
													<g>
														<path class="st5" d="M627.2,166.1c0-0.1,0.7-0.1,1.9,0c0.3,0,0.6,0,0.7-0.2c0.1-0.2,0-0.5-0.1-0.9
															c-0.2-0.7-0.3-1.5-0.5-2.3c-0.7-3.3-1.1-6-1-6.1c0.1,0,0.8,2.6,1.5,6c0.2,0.8,0.3,1.6,0.5,2.3c0.1,0.3,0.2,0.7,0,1.2
															c-0.1,0.2-0.3,0.3-0.5,0.3c-0.2,0-0.4,0-0.5,0C627.9,166.3,627.2,166.2,627.2,166.1z"/>
													</g>
												</g>
											</g>
										</g>
									</g>
									<g>
										<g>
											<g>
												<g>
													<path class="st17" d="M625.9,179.6c0,0-5.6-0.5-10.5-4.7c0,0,1.8,6,10.1,6.6L625.9,179.6z"/>
												</g>
											</g>
										</g>
									</g>
									<g>
										<g>
											<g>
												<g>
													<g>
														<path class="st5" d="M623.8,166.3c0.2,0,0,1.2,0.9,2.3c0.9,1,2.2,1.1,2.2,1.3c0,0.1-0.3,0.2-0.9,0.1
															c-0.5-0.1-1.3-0.4-1.9-1c-0.6-0.6-0.7-1.4-0.7-1.9C623.5,166.6,623.7,166.3,623.8,166.3z"/>
													</g>
												</g>
											</g>
										</g>
									</g>
								</g>
							</g>
						</g>
						<g>
							<g>
								<g>
									<g>
										<path class="st5" d="M625.5,152.7c-0.2,0.3-1.3,0-2.6-0.1c-1.4-0.1-2.5,0.1-2.6-0.2c-0.1-0.1,0.2-0.4,0.7-0.6
											c0.5-0.2,1.2-0.4,2-0.4c0.8,0,1.5,0.3,2,0.6C625.3,152.3,625.5,152.5,625.5,152.7z"/>
									</g>
								</g>
							</g>
						</g>
						<g>
							<g>
								<g>
									<g>
										<path class="st5" d="M635.7,155.3c-0.2,0.2-1-0.2-1.9-0.3c-0.9-0.2-1.8-0.1-1.9-0.4c-0.1-0.1,0.1-0.4,0.5-0.6
											c0.4-0.2,1-0.3,1.6-0.2c0.6,0.1,1.2,0.4,1.4,0.8C635.8,154.9,635.8,155.2,635.7,155.3z"/>
									</g>
								</g>
							</g>
						</g>
						<g>
							<g>
								<g>
									<g>
										<path class="st5" d="M638.5,151.8c0,0-4.5,1.5-9.7-2c-3.4-2.3-7.6-3.7-8.6-3.1c-1,0.6-1.7,4.3-5.5,5c0,0-0.7,7.2-3.5,6.6
											c-2-0.4-0.8-8.4,0-12.9c0.3-1.8,1.9-3.1,3.7-3.2l5.3-0.2l6.6,1.8l7.1,1.9l5.4,2.2L638.5,151.8z"/>
									</g>
								</g>
							</g>
						</g>
					</g>
					<g>
						<g>
							<g>
								<g>
									<g>
										<g>
											<path class="st16" d="M611.8,155.4c-0.1-0.1-4.5-2.4-5.3,2.4c-0.8,4.8,4.1,4.6,4.2,4.5
												C610.8,162.1,611.8,155.4,611.8,155.4z"/>
										</g>
									</g>
								</g>
							</g>
						</g>
						<g>
							<g>
								<g>
									<g>
										<g>
											<g>
												<path class="st17" d="M609.6,160.2c0,0-0.1,0-0.2,0.1c-0.1,0-0.4,0-0.6-0.1c-0.5-0.3-0.8-1.1-0.6-2
													c0.1-0.4,0.2-0.8,0.4-1.2c0.2-0.3,0.5-0.5,0.7-0.5c0.3,0,0.4,0.2,0.5,0.3c0,0.1,0,0.2,0,0.2c0,0,0.1-0.1,0.1-0.3
													c0-0.1,0-0.2-0.1-0.3c-0.1-0.1-0.3-0.2-0.4-0.2c-0.4,0-0.8,0.2-1,0.6c-0.3,0.3-0.4,0.8-0.5,1.3c-0.1,1,0.2,1.9,0.9,2.3
													c0.3,0.1,0.6,0.1,0.8,0C609.6,160.3,609.6,160.2,609.6,160.2z"/>
											</g>
										</g>
									</g>
								</g>
							</g>
						</g>
					</g>
				</g>
			</g>
			<g>
				<g>
					<path class="st6" d="M636.2,139.7c0,0-0.2,0.3-0.5,0.6c-0.3,0.4-0.9,0.9-1.8,1.2c-0.9,0.3-2,0.4-3.2,0.1
						c-1.2-0.2-2.5-0.7-3.8-1.2c-1.4-0.5-2.8-0.8-4.1-0.7c-1.3,0.1-2.4,0.7-3.1,1.4c-0.7,0.7-0.9,1.5-1,2.1c0,0.6,0.1,0.8,0.1,0.8
						c0,0,0-0.3,0.1-0.8c0.1-0.5,0.4-1.2,1-1.9c0.6-0.6,1.7-1.1,2.9-1.2c1.2-0.1,2.5,0.3,3.9,0.7c1.4,0.5,2.7,1,3.9,1.2
						c1.3,0.2,2.5,0.1,3.4-0.3c0.9-0.4,1.5-0.9,1.8-1.4C636.1,140,636.2,139.7,636.2,139.7z"/>
				</g>
			</g>
			<g>
				<g>
					<path class="st6" d="M620.1,144.3c0,0,0.2-0.3,0.7-0.6c0.5-0.3,1.3-0.7,2.4-0.7c1.1-0.1,2.3,0.3,3.6,0.9c1.3,0.6,2.7,1.5,4.3,2
						c3.4,1.1,6.6,0.2,8.5-0.9c1-0.6,1.7-1.2,2.1-1.6c0.4-0.5,0.6-0.7,0.6-0.8c-0.1-0.1-0.9,1-2.9,2.1c-1.9,1-5,1.8-8.2,0.8
						c-1.6-0.5-2.9-1.4-4.3-2c-1.3-0.6-2.7-0.9-3.9-0.8c-1.1,0.1-2,0.5-2.5,0.9C620.2,143.9,620,144.3,620.1,144.3z"/>
				</g>
			</g>
		</g>
		<g>
			<path class="st9" d="M655.5,202.8"/>
		</g>
		<g>
			<g>
				<g>
					<g>
						<g>
							<path class="st16" d="M634.9,225.5l23.2-19.8l7.7,1.7c0,0-8.1,16.8-13.9,22.9c0,0-5.8,7.7-15.3,4.4
								C627,231.4,634.9,225.5,634.9,225.5z"/>
						</g>
					</g>
				</g>
			</g>
			<g>
				<g>
					<g>
						<g>
							<path class="st6" d="M659.8,183.9h9.9c1.5,0,2.8,1.7,2.3,3.1l-9.9,19.3c-0.4,0.7-1.2,1.2-2,1.2l-12,0
								c-1.4-0.2-1.9-1.7-1.3-2.5l9.6-18.9C657,184.8,658.3,183.9,659.8,183.9z"/>
						</g>
					</g>
				</g>
				<g>
					<g>
						<g>
							<path class="st8" d="M660.5,185.1h9.9c1.2,0,2,1.3,1.5,2.4l-9.7,18.9c-0.4,0.7-1.2,1.2-2,1.2h-11.9c-0.7,0-1.2-0.8-0.9-1.4
								l9.6-18.9C657.6,186,659,185.1,660.5,185.1z"/>
						</g>
					</g>
				</g>
			</g>
			<g>
				<g>
					<g>
						<g>
							<path class="st16" d="M661.3,193l6,2.4l1.3,4.8l-2.9,7.2l-10.6,1.5l3.1-3.2l-0.4-2.8c0,0-3-0.9-3-1.4c-0.1-0.5,0.4-2,0.8-2
								c0.5-0.1,3.6,1.1,3.6,1.1s-3.7-2.9-3.6-3.4c0.1-0.5,0.5-1.7,1.2-1.8c0.7-0.1,6.7,2.7,6.7,2.7l1,2.2l0.8-3.5
								C665.3,196.9,660,195.4,661.3,193z"/>
						</g>
					</g>
				</g>
				<g>
					<g>
						<g>
							<g>
								<path class="st17" d="M660.6,204.4c0,0,0.1-0.2,0.2-0.6c0.1-0.4,0-0.9-0.2-1.5c-0.2-0.6-0.6-1-0.9-1.3
									c-0.3-0.3-0.5-0.4-0.5-0.3c-0.1,0.1,0.7,0.6,1.1,1.7C660.7,203.4,660.5,204.3,660.6,204.4z"/>
							</g>
						</g>
					</g>
				</g>
				<g>
					<g>
						<g>
							<g>
								<path class="st17" d="M663.4,203.3c0,0-0.2-0.6-0.2-1.6c0-0.5-0.1-1.1-0.3-1.7c-0.1-0.3-0.3-0.7-0.6-0.9
									c-0.3-0.3-0.6-0.5-1-0.6c-1.4-0.5-2.7-0.9-3.7-1.2c-0.9-0.3-1.5-0.5-1.6-0.4c0,0,0.6,0.3,1.5,0.6c0.9,0.4,2.2,0.8,3.6,1.3
									c0.3,0.1,0.7,0.3,0.9,0.5c0.2,0.2,0.4,0.5,0.5,0.8c0.2,0.6,0.3,1.2,0.4,1.7C663.1,202.8,663.4,203.3,663.4,203.3z"/>
							</g>
						</g>
					</g>
				</g>
				<g>
					<g>
						<g>
							<g>
								<path class="st17" d="M664.8,202.2c0.1,0,0.1-0.5,0-1.2c-0.1-0.6-0.3-1.1-0.3-1.1c-0.1,0-0.1,0.5,0,1.2
									C664.6,201.7,664.7,202.2,664.8,202.2z"/>
							</g>
						</g>
					</g>
				</g>
			</g>
			<g>
				<g>
					<g>
						<path class="st7" d="M665,188.7c0,0.7-0.6,1.3-1.3,1.3c-0.7,0-1.3-0.6-1.3-1.3c0-0.7,0.6-1.3,1.3-1.3
							C664.4,187.5,665,188.1,665,188.7z"/>
					</g>
				</g>
			</g>
		</g>
	</g>
</g>
<g id="Plant">
	<g>
		<g>
			<g>
				<path class="st11" d="M699.6,379.4c-3.2,0.9-5.7,3.3-7.3,6.2c-1.5,2.9-2.1,6.2-2.2,9.5c-0.2,6.3,2.4,13.1,5.5,18.7
					c5.9-3.8,8.3-11.6,9.2-15.7C706.3,391.6,705.1,379.2,699.6,379.4"/>
			</g>
		</g>
		<g>
			<g>
				<path class="st11" d="M688,423.1c1.4-3.4,0.4-7.5-1.9-10.3c-2.4-2.8-6-4.4-9.6-4.6c-1.7-0.1-3.6,0.1-4.7,1.3
					c-1.1,1.2-1.2,3-0.7,4.5c0.5,1.5,1.6,2.7,2.8,3.7C678,421.2,682.6,423.8,688,423.1"/>
			</g>
		</g>
		<g>
			<g>
				<g>
					<path class="st5" d="M691.9,443.1c0,0,0-0.5,0-1.3c0-0.9-0.1-2.1-0.1-3.5c-0.2-3-0.3-7.2-2-11.6c-1.6-4.3-4.3-7.7-6.7-9.6
						c-1.2-0.9-2.3-1.6-3-1.9c-0.4-0.2-0.7-0.3-0.9-0.4c-0.2-0.1-0.3-0.1-0.3-0.1c-0.1,0.1,1.8,0.7,4,2.6c2.3,1.9,4.9,5.2,6.5,9.5
						c1.6,4.3,1.8,8.5,2.1,11.4c0.1,1.5,0.2,2.7,0.3,3.5C691.8,442.7,691.9,443.1,691.9,443.1z"/>
				</g>
			</g>
		</g>
		<g>
			<g>
				<g>
					<path class="st5" d="M699.6,388.9c0,0-0.1,0.2-0.1,0.5c-0.1,0.4-0.2,0.9-0.3,1.6c-0.3,1.4-0.7,3.4-1.1,5.9
						c-0.9,5-2,11.8-3.1,19.5c-1.1,7.6-1.9,14.5-2.4,19.6c-0.3,2.5-0.5,4.5-0.6,5.9c-0.1,0.7-0.1,1.2-0.1,1.6c0,0.4,0,0.6,0,0.6
						c0,0,0.1-0.2,0.1-0.6c0.1-0.4,0.1-0.9,0.2-1.6c0.2-1.5,0.4-3.5,0.7-5.9c0.6-5,1.5-11.9,2.5-19.5c1.1-7.6,2.2-14.5,3-19.5
						c0.4-2.4,0.7-4.4,1-5.9c0.1-0.7,0.2-1.2,0.2-1.6C699.6,389.1,699.6,388.9,699.6,388.9z"/>
				</g>
			</g>
		</g>
		<g>
			<g>
				<path class="st11" d="M696.5,428.2c2.3-7.4,8.4-13.4,15.7-15.7c1.9-0.6,4.2-0.8,5.5,0.7c1.3,1.5,0.6,3.8-0.4,5.5
					c-4,7.1-12.7,11.3-20.8,10"/>
			</g>
		</g>
		<g>
			<g>
				<g>
					<path class="st5" d="M710.5,418.2c0,0-0.4,0.1-1.2,0.3c-0.4,0.1-0.8,0.3-1.4,0.5c-0.5,0.2-1.1,0.4-1.7,0.8
						c-0.6,0.3-1.3,0.7-2,1.1c-0.7,0.4-1.4,0.9-2.2,1.5c-1.5,1.1-3,2.5-4.4,4.2c-1.4,1.7-2.4,3.5-3.2,5.2c-0.4,0.9-0.7,1.7-1,2.5
						c-0.3,0.8-0.5,1.5-0.6,2.2c-0.2,0.7-0.3,1.3-0.4,1.9c-0.1,0.6-0.1,1-0.2,1.4c-0.1,0.8-0.1,1.2,0,1.2c0.1,0,0.2-1.7,0.9-4.5
						c0.2-0.7,0.4-1.4,0.7-2.2c0.3-0.8,0.6-1.6,1-2.4c0.8-1.7,1.9-3.4,3.2-5.1c1.4-1.6,2.8-3,4.3-4.2c0.7-0.6,1.4-1.1,2.1-1.5
						c0.7-0.5,1.4-0.8,2-1.1C708.9,418.8,710.5,418.3,710.5,418.2z"/>
				</g>
			</g>
		</g>
	</g>
</g>
</svg>
